<?xml version="1.0" encoding="UTF-8" standalone="no"?>
<!DOCTYPE svg PUBLIC "-//W3C//DTD SVG 1.1//EN" "http://www.w3.org/Graphics/SVG/1.1/DTD/svg11.dtd">
<svg width="100%" height="100%" viewBox="0 0 56 56" version="1.1" xmlns="http://www.w3.org/2000/svg" xmlns:xlink="http://www.w3.org/1999/xlink" xml:space="preserve" xmlns:serif="http://www.serif.com/" style="fill-rule:evenodd;clip-rule:evenodd;">
    <rect x="6" y="31" width="45" height="24" style="fill:rgb(249,209,0);"/>
    <path d="M4.473,54.512C4.473,54.985 4.86,55.377 5.327,55.377L50.673,55.377C51.14,55.377 51.527,54.985 51.527,54.512L51.527,30.34C51.527,29.867 51.14,29.476 50.673,29.476L44.096,29.476L30.077,20.473L30.418,20.219C31.499,19.424 32.114,18.202 32.114,16.876C32.114,14.998 30.862,13.349 29.075,12.865L28.859,12.807L28.859,8.473L32.239,8.473C32.523,8.473 32.785,8.335 32.944,8.093C33.104,7.862 33.138,7.551 33.035,7.286L30.646,1.165C30.509,0.842 30.202,0.623 29.849,0.623L26.151,0.623C25.798,0.623 25.491,0.842 25.354,1.165L22.965,7.286C22.862,7.551 22.896,7.851 23.056,8.093C23.215,8.335 23.477,8.473 23.761,8.473L27.141,8.473L27.141,13.58C27.141,14.052 27.528,14.444 27.994,14.444C29.314,14.444 30.384,15.528 30.384,16.865C30.384,18.202 29.314,19.286 27.994,19.286C26.674,19.286 25.605,18.202 25.605,16.865C25.605,16.392 25.218,16 24.751,16C24.285,16 23.898,16.392 23.898,16.865C23.898,18.191 24.512,19.412 25.593,20.208L25.935,20.461L11.904,29.476L5.327,29.476C4.86,29.476 4.473,29.856 4.473,30.34L4.473,54.512ZM25.024,6.744L26.743,2.352L29.28,2.352L30.999,6.744L25.024,6.744ZM28.006,21.188L40.91,29.476L15.09,29.476L28.006,21.188ZM6.18,31.205L49.82,31.205L49.82,53.648L6.18,53.648L6.18,31.205Z" style="fill-rule:nonzero;stroke:black;stroke-width:0.4px;"/>
    <path d="M11.79,35.504C11.79,35.032 11.403,34.64 10.937,34.64C10.47,34.64 10.083,35.032 10.083,35.504L10.083,49.337C10.083,49.809 10.47,50.201 10.937,50.201C11.403,50.201 11.79,49.809 11.79,49.337L11.79,35.504Z" style="fill-rule:nonzero;stroke:black;stroke-width:0.4px;"/>
    <path d="M18.618,37.81C18.618,37.337 18.231,36.945 17.764,36.945C17.298,36.945 16.911,37.337 16.911,37.81L16.911,47.031C16.911,47.504 17.298,47.896 17.764,47.896C18.231,47.896 18.618,47.504 18.618,47.031L18.618,37.81Z" style="fill-rule:nonzero;stroke:black;stroke-width:0.4px;"/>
    <path d="M25.445,35.504C25.445,35.032 25.058,34.64 24.592,34.64C24.125,34.64 23.738,35.032 23.738,35.504L23.738,49.337C23.738,49.809 24.125,50.201 24.592,50.201C25.058,50.201 25.445,49.809 25.445,49.337L25.445,35.504Z" style="fill-rule:nonzero;stroke:black;stroke-width:0.4px;"/>
    <path d="M31.42,36.945C30.953,36.945 30.566,37.337 30.566,37.81L30.566,47.031C30.566,47.504 30.953,47.896 31.42,47.896C31.886,47.896 32.273,47.504 32.273,47.031L32.273,37.81C32.273,37.337 31.886,36.945 31.42,36.945Z" style="fill-rule:nonzero;stroke:black;stroke-width:0.4px;"/>
    <path d="M38.247,34.64C37.781,34.64 37.394,35.032 37.394,35.504L37.394,49.337C37.394,49.809 37.781,50.201 38.247,50.201C38.714,50.201 39.101,49.809 39.101,49.337L39.101,35.504C39.101,35.032 38.714,34.64 38.247,34.64Z" style="fill-rule:nonzero;stroke:black;stroke-width:0.4px;"/>
    <path d="M45.075,36.945C44.608,36.945 44.221,37.337 44.221,37.81L44.221,47.031C44.221,47.504 44.608,47.896 45.075,47.896C45.541,47.896 45.928,47.504 45.928,47.031L45.928,37.81C45.928,37.337 45.541,36.945 45.075,36.945Z" style="fill-rule:nonzero;stroke:black;stroke-width:0.4px;"/>
</svg>
