<?xml version="1.0" encoding="UTF-8" standalone="no"?>
<!DOCTYPE svg PUBLIC "-//W3C//DTD SVG 1.1//EN" "http://www.w3.org/Graphics/SVG/1.1/DTD/svg11.dtd">
<svg width="100%" height="100%" viewBox="0 0 56 56" version="1.1" xmlns="http://www.w3.org/2000/svg" xmlns:xlink="http://www.w3.org/1999/xlink" xml:space="preserve" xmlns:serif="http://www.serif.com/" style="fill-rule:evenodd;clip-rule:evenodd;">
    <circle cx="33.5" cy="39.5" r="12.5" style="fill:rgb(249,209,0);"/>
    <path d="M53.831,2.924L41.499,24.22L40.739,23.78C39.926,23.311 38.994,23.217 38.148,23.443C37.302,23.67 36.543,24.218 36.074,25.03L35.57,25.898C30.225,25.156 24.708,27.632 21.847,32.587C18.08,39.112 20.325,47.482 26.85,51.249C33.374,55.015 41.741,52.771 45.508,46.246C48.369,41.291 47.756,35.278 44.441,31.02L44.944,30.153C45.883,28.527 45.319,26.426 43.694,25.487L42.977,25.074L55.309,3.781L53.831,2.924ZM8.145,18.764L7.291,20.242L22.077,28.779L22.931,27.301L8.145,18.764ZM2.626,21.492L1.772,22.97L13.604,29.799L14.457,28.322L2.626,21.492ZM39.238,25.034C39.459,25.063 39.677,25.137 39.885,25.257L40.642,25.694L40.642,25.697L42.12,26.554L42.123,26.551L42.84,26.965C43.672,27.445 43.947,28.467 43.467,29.299L43.243,29.686C42.437,28.893 41.533,28.179 40.509,27.588C39.486,26.998 38.416,26.573 37.327,26.271L37.551,25.884C37.911,25.26 38.577,24.948 39.238,25.034ZM1.545,26.781L0.691,28.262L3.649,29.969L4.503,28.489L1.545,26.781ZM33.996,27.465C35.922,27.516 37.866,28.036 39.655,29.069C45.38,32.374 47.336,39.667 44.03,45.393C40.725,51.118 33.429,53.074 27.703,49.768C21.978,46.463 20.023,39.166 23.328,33.441C25.601,29.505 29.758,27.353 33.996,27.465ZM15.935,29.176L15.081,30.653L18.039,32.36L18.893,30.883L15.935,29.176ZM7.458,30.196L6.604,31.677L16.955,37.653L17.809,36.172L7.458,30.196ZM27.072,33.441C26.919,33.439 26.768,33.479 26.636,33.556C26.503,33.633 26.394,33.744 26.319,33.878C24.96,36.23 24.595,39.027 25.298,41.651C26.001,44.275 27.718,46.516 30.07,47.874C30.168,47.93 30.275,47.966 30.386,47.981C30.497,47.995 30.61,47.988 30.719,47.959C30.827,47.93 30.929,47.88 31.018,47.811C31.107,47.743 31.181,47.658 31.237,47.56C31.294,47.463 31.33,47.356 31.344,47.245C31.359,47.133 31.352,47.02 31.322,46.912C31.293,46.803 31.243,46.702 31.175,46.613C31.106,46.524 31.021,46.449 30.924,46.393C28.963,45.261 27.532,43.398 26.946,41.211C26.36,39.024 26.667,36.692 27.799,34.731C27.858,34.633 27.896,34.524 27.912,34.411C27.928,34.298 27.921,34.183 27.891,34.072C27.862,33.962 27.81,33.859 27.74,33.769C27.67,33.678 27.582,33.603 27.483,33.548C27.357,33.478 27.216,33.441 27.072,33.441Z" style="fill-rule:nonzero;stroke:black;stroke-width:0.8px;"/>
</svg>
