<?xml version="1.0" encoding="UTF-8" standalone="no"?>
<!DOCTYPE svg PUBLIC "-//W3C//DTD SVG 1.1//EN" "http://www.w3.org/Graphics/SVG/1.1/DTD/svg11.dtd">
<svg width="100%" height="100%" viewBox="0 0 56 60" version="1.1" xmlns="http://www.w3.org/2000/svg" xmlns:xlink="http://www.w3.org/1999/xlink" xml:space="preserve" xmlns:serif="http://www.serif.com/" style="fill-rule:evenodd;clip-rule:evenodd;stroke-miterlimit:10;">
    <g>
        <path d="M15.566,1.066L40.434,1.066C42.728,1.066 44.579,2.978 44.579,5.346L44.579,31.028C44.579,33.397 42.728,35.309 40.434,35.309L15.566,35.309C13.272,35.309 11.421,33.397 11.421,31.028L11.421,5.346C11.421,2.978 13.272,1.066 15.566,1.066ZM37.671,12.665L37.671,15.334L39.053,16.76L39.053,19.614L37.671,21.041L37.671,23.709C36.22,26.405 33.734,28.446 30.763,29.23L29.382,26.748L26.618,26.748L25.237,29.23C22.267,28.431 19.78,26.405 18.329,23.709L18.329,21.041L16.947,19.614L16.947,16.76L18.329,15.334L18.329,12.665C19.78,9.969 22.267,7.928 25.237,7.144L26.618,9.626L29.382,9.626L30.763,7.144C33.734,7.943 36.22,9.969 37.671,12.665Z" style="fill:rgb(249,209,0);"/>
        <path d="M40.434,1.066L15.566,1.066C13.272,1.066 11.421,2.978 11.421,5.346L11.421,31.028C11.421,33.397 13.272,35.309 15.566,35.309L40.434,35.309C42.728,35.309 44.579,33.397 44.579,31.028L44.579,5.346C44.579,2.978 42.728,1.066 40.434,1.066Z" style="fill:none;fill-rule:nonzero;stroke:black;stroke-width:2.3px;"/>
        <path d="M23.855,19.614L23.855,16.76" style="fill:none;fill-rule:nonzero;stroke:black;stroke-width:2.3px;"/>
        <path d="M32.145,19.614L32.145,16.76" style="fill:none;fill-rule:nonzero;stroke:black;stroke-width:2.3px;"/>
        <path d="M37.671,15.333L37.671,12.665C36.22,9.969 33.734,7.943 30.763,7.144L29.382,9.626L26.618,9.626L25.237,7.144C22.266,7.928 19.78,9.969 18.329,12.665L18.329,15.333L16.947,16.76L16.947,19.614L18.329,21.041L18.329,23.709C19.78,26.405 22.266,28.431 25.237,29.23L26.618,26.748L29.382,26.748L30.763,29.23C33.734,28.446 36.22,26.405 37.671,23.709L37.671,21.041L39.053,19.614L39.053,16.76L37.671,15.333Z" style="fill:none;fill-rule:nonzero;stroke:black;stroke-width:2.3px;"/>
        <path d="M28,36.167L28,39.325C28,41.072 29.401,42.482 31.137,42.482L44.731,42.482C46.467,42.482 47.868,43.893 47.868,45.64C47.868,47.387 46.467,48.798 44.731,48.798L11.269,48.798C9.533,48.798 8.132,50.208 8.132,51.956C8.132,53.703 9.533,55.113 11.269,55.113L24.863,55.113C26.599,55.113 28,56.524 28,58.271L28,60.376" style="fill:none;fill-rule:nonzero;stroke:black;stroke-width:2.3px;"/>
    </g>
</svg>
