<?xml version="1.0" encoding="UTF-8" standalone="no"?>
<!DOCTYPE svg PUBLIC "-//W3C//DTD SVG 1.1//EN" "http://www.w3.org/Graphics/SVG/1.1/DTD/svg11.dtd">
<svg width="100%" height="100%" viewBox="0 0 56 56" version="1.1" xmlns="http://www.w3.org/2000/svg" xmlns:xlink="http://www.w3.org/1999/xlink" xml:space="preserve" xmlns:serif="http://www.serif.com/" style="fill-rule:evenodd;clip-rule:evenodd;stroke-miterlimit:10;">
    <g>
        <rect x="30" y="5" width="14" height="4" style="fill:rgb(249,209,0);"/>
        <path d="M34.5,36.5L28.5,36.5L29,47.5L31,48L38.5,53L42,53L45.5,48L45.5,36.5L40,36.5L39.5,42L37,44.5L35,42L34.5,36.5Z" style="fill:rgb(249,209,0);fill-rule:nonzero;"/>
        <path d="M39.588,36.217L39.588,17.436C39.588,16.697 39.941,16.004 40.528,15.558L42.875,13.797C43.767,13.128 44.283,12.084 44.283,10.98L44.283,4.524L30.198,4.524L30.198,10.98C30.198,12.084 30.715,13.128 31.607,13.797L33.954,15.558C34.541,16.004 34.893,16.697 34.893,17.436L34.893,36.217" style="fill:none;fill-rule:nonzero;stroke:black;stroke-width:2.3px;"/>
        <path d="M34.893,36.217L29.024,36.217L29.024,46.781" style="fill:none;fill-rule:nonzero;stroke:black;stroke-width:2.3px;"/>
        <path d="M42.051,52.834C42.626,52.118 44.824,48.882 45.094,48.342C45.34,47.86 45.457,47.321 45.457,46.781L45.457,36.217L38.415,36.217" style="fill:none;fill-rule:nonzero;stroke:black;stroke-width:2.3px;"/>
        <path d="M34.893,17.436L39.588,17.436" style="fill:none;fill-rule:nonzero;stroke:black;stroke-width:2.3px;"/>
        <path d="M4.375,55.004L10.244,49.135L17.287,51.483L26.251,47.792L30.947,47.792L38.415,52.972L47.805,52.972L52.5,55.004" style="fill:none;fill-rule:nonzero;stroke:black;stroke-width:2.3px;"/>
        <path d="M14.582,0.939C14.663,0.906 14.749,0.888 14.836,0.886C14.931,0.885 15.026,0.903 15.114,0.939C17.523,1.913 19.104,4.257 19.105,6.855C19.104,9.01 18.013,10.987 16.267,12.156L16.267,10.226C17.148,9.343 17.684,8.159 17.686,6.855C17.684,4.949 16.539,3.297 14.846,2.468C13.154,3.297 12.009,4.95 12.007,6.855C12.009,8.479 12.843,9.915 14.137,10.818L14.137,6.918C14.135,6.824 14.152,6.732 14.187,6.645C14.221,6.559 14.272,6.48 14.337,6.413C14.402,6.346 14.48,6.293 14.565,6.256C14.651,6.219 14.743,6.199 14.836,6.198C14.931,6.196 15.025,6.214 15.113,6.249C15.201,6.285 15.282,6.338 15.349,6.405C15.416,6.472 15.469,6.552 15.505,6.64C15.54,6.728 15.558,6.823 15.557,6.918L15.47,20.834C16.373,19.911 17.63,19.334 19.018,19.334C19.965,19.334 20.808,19.787 21.546,20.377C21.571,20.397 21.594,20.42 21.618,20.44C21.664,20.424 21.71,20.412 21.758,20.405C22.079,20.36 22.401,20.341 22.719,20.344C24.947,20.371 27.034,21.565 28.173,23.533C29.47,25.784 29.272,28.603 27.672,30.652C27.559,30.797 27.393,30.893 27.211,30.918C24.637,31.279 22.1,30.04 20.799,27.791L20.797,27.789C19.801,26.062 19.69,24.002 20.412,22.211C20.799,22.552 21.198,22.987 21.569,23.454C21.249,24.66 21.377,25.953 22.028,27.081C22.982,28.731 24.796,29.588 26.676,29.46C27.728,27.896 27.895,25.893 26.944,24.242C26.115,22.809 24.633,21.978 23.025,21.868C23.186,22.063 23.342,22.259 23.489,22.456C24.599,23.936 25.331,25.402 25.331,25.402C25.415,25.571 25.428,25.766 25.369,25.944C25.309,26.123 25.181,26.27 25.013,26.355C24.844,26.439 24.649,26.452 24.471,26.393C24.292,26.333 24.145,26.205 24.06,26.036C24.06,26.036 23.371,24.666 22.352,23.308C21.843,22.628 21.254,21.959 20.661,21.484C20.068,21.01 19.491,20.754 19.018,20.754C17.05,20.754 15.47,22.332 15.47,24.3L15.47,50.309L14.05,50.308L14.05,24.3C14.05,22.332 12.472,20.754 10.504,20.754C10.031,20.754 9.455,21.01 8.861,21.484C8.268,21.959 7.677,22.628 7.167,23.308C6.148,24.666 5.462,26.036 5.462,26.036C5.378,26.205 5.23,26.333 5.052,26.393C4.873,26.452 4.678,26.439 4.51,26.355C4.341,26.27 4.213,26.123 4.153,25.944C4.094,25.766 4.107,25.571 4.192,25.402C4.192,25.402 4.923,23.936 6.033,22.456C6.181,22.258 6.337,22.061 6.499,21.865C4.89,21.974 3.408,22.808 2.578,24.242C1.627,25.893 1.792,27.896 2.843,29.46C4.723,29.588 6.54,28.731 7.494,27.081C8.145,25.952 8.273,24.659 7.953,23.454C8.323,22.986 8.721,22.551 9.109,22.209C9.831,24 9.719,26.061 8.723,27.788L8.723,27.791C7.422,30.04 4.882,31.279 2.309,30.918C2.126,30.893 1.961,30.797 1.847,30.652C0.248,28.603 0.052,25.784 1.35,23.533C2.488,21.565 4.576,20.371 6.803,20.344C7.122,20.341 7.442,20.36 7.764,20.405C7.812,20.412 7.858,20.424 7.904,20.44C7.928,20.42 7.952,20.397 7.977,20.377C8.714,19.787 9.558,19.334 10.504,19.334C11.891,19.334 13.147,19.91 14.05,20.832L14.137,12.572C11.98,11.502 10.593,9.291 10.591,6.855C10.593,4.257 12.173,1.913 14.582,0.939Z" style="fill-rule:nonzero;stroke:black;stroke-width:0.8px;stroke-miterlimit:4;"/>
        <path d="M19.671,54.326L17.323,50.805" style="fill:none;fill-rule:nonzero;stroke:black;stroke-width:2.3px;"/>
        <path d="M44.283,9.046L30.198,9.046" style="fill:none;fill-rule:nonzero;stroke:black;stroke-width:2.3px;"/>
        <path d="M39.588,36.564L39.588,42.086C39.588,43.377 37.241,44.433 37.241,44.433C37.241,44.433 34.893,43.377 34.893,42.086L34.893,36.217" style="fill:none;fill-rule:nonzero;stroke:black;stroke-width:2.3px;"/>
        <path d="M34.893,32.695L39.588,32.695" style="fill:none;fill-rule:nonzero;stroke:black;stroke-width:2.3px;"/>
    </g>
</svg>
