<?xml version="1.0" encoding="UTF-8" standalone="no"?>
<!DOCTYPE svg PUBLIC "-//W3C//DTD SVG 1.1//EN" "http://www.w3.org/Graphics/SVG/1.1/DTD/svg11.dtd">
<svg width="100%" height="100%" viewBox="0 0 56 63" version="1.1" xmlns="http://www.w3.org/2000/svg" xmlns:xlink="http://www.w3.org/1999/xlink" xml:space="preserve" xmlns:serif="http://www.serif.com/" style="fill-rule:evenodd;clip-rule:evenodd;stroke-linejoin:round;stroke-miterlimit:2;">
    <path d="M14,41.5L14,35L1.5,41.5L1.5,47.5L28,61.5L55,47.5L55,41.5L42.5,35L42.5,41.5L28,49L14,41.5Z" style="fill:rgb(249,209,0);fill-rule:nonzero;"/>
    <path d="M24.298,19.756L18.443,16.654C17.928,16.382 17.291,16.578 17.016,17.094C16.744,17.609 16.94,18.249 17.455,18.522L23.31,21.623C23.469,21.705 23.635,21.746 23.802,21.746C24.18,21.746 24.547,21.541 24.735,21.184C25.009,20.668 24.813,20.028 24.298,19.756Z" style="fill-rule:nonzero;"/>
    <path d="M24.298,25.367L18.443,22.265C17.928,21.993 17.291,22.189 17.016,22.705C16.744,23.22 16.94,23.86 17.455,24.133L23.31,27.234C23.469,27.317 23.635,27.357 23.802,27.357C24.18,27.357 24.547,27.152 24.735,26.795C25.009,26.277 24.813,25.639 24.298,25.367Z" style="fill-rule:nonzero;"/>
    <path d="M24.298,30.976L18.443,27.874C17.928,27.602 17.291,27.798 17.016,28.314C16.744,28.829 16.94,29.47 17.455,29.742L23.31,32.843C23.469,32.926 23.635,32.966 23.802,32.966C24.18,32.966 24.547,32.761 24.735,32.404C25.009,31.889 24.813,31.248 24.298,30.976Z" style="fill-rule:nonzero;"/>
    <path d="M24.298,36.587L18.443,33.486C17.928,33.213 17.291,33.41 17.016,33.925C16.744,34.441 16.94,35.081 17.455,35.353L23.31,38.455C23.469,38.537 23.635,38.577 23.802,38.577C24.18,38.577 24.547,38.372 24.735,38.015C25.009,37.5 24.813,36.859 24.298,36.587Z" style="fill-rule:nonzero;"/>
    <path d="M55.282,40.297L43.302,33.953L43.302,8.937C43.302,8.567 43.108,8.223 42.791,8.032C42.777,8.024 28.492,0.461 28.492,0.461C28.184,0.298 27.814,0.298 27.504,0.461C27.504,0.461 13.219,8.024 13.207,8.032C12.89,8.223 12.696,8.567 12.696,8.937L12.696,33.953L0.716,40.297C0.37,40.481 0.155,40.84 0.155,41.231L0.155,47.421C0.155,47.811 0.37,48.171 0.716,48.354L27.506,62.539C27.66,62.621 27.829,62.661 28,62.661C28.171,62.661 28.34,62.621 28.494,62.539L55.284,48.354C55.63,48.171 55.846,47.811 55.846,47.421L55.846,41.231C55.843,40.84 55.628,40.481 55.282,40.297ZM33.553,44.638L33.553,39.627L36.694,37.964L36.694,42.976L33.553,44.638ZM38.294,35.307C37.977,35.117 37.582,35.104 37.255,35.277L32.004,38.057C31.658,38.241 31.442,38.6 31.442,38.991L31.442,45.756L29.055,47.019L29.055,17.117L41.191,10.69L41.191,40.593L38.804,41.856L38.804,36.209C38.804,35.841 38.61,35.497 38.294,35.307ZM28,2.588L39.991,8.937L28,15.285L16.009,8.937L28,2.588ZM14.807,40.595L14.807,10.69L26.943,17.117L26.943,47.019L14.807,40.595ZM12.696,36.344L12.696,41.231C12.696,41.621 12.911,41.981 13.257,42.164L27.508,49.709C27.66,49.789 27.829,49.831 27.996,49.831C28.165,49.831 28.336,49.791 28.49,49.709L42.736,42.164C43.083,41.981 43.298,41.621 43.298,41.231L43.298,36.344L52.528,41.231L27.996,54.219L3.464,41.231L12.696,36.344ZM28,60.409L2.265,46.783L2.265,42.984L27.506,56.349C27.66,56.431 27.829,56.471 28,56.471C28.171,56.471 28.34,56.431 28.494,56.349L53.735,42.984L53.735,46.783L28,60.409Z" style="fill-rule:nonzero;"/>
    <path d="M32.196,21.746C32.363,21.746 32.532,21.705 32.688,21.623L38.543,18.522C39.058,18.249 39.254,17.609 38.982,17.094C38.709,16.578 38.07,16.382 37.555,16.654L31.7,19.756C31.185,20.028 30.989,20.668 31.261,21.184C31.451,21.541 31.818,21.746 32.196,21.746Z" style="fill-rule:nonzero;"/>
    <path d="M32.196,27.357C32.363,27.357 32.532,27.317 32.688,27.234L38.543,24.133C39.058,23.86 39.254,23.22 38.982,22.705C38.709,22.189 38.07,21.993 37.555,22.265L31.7,25.367C31.185,25.639 30.989,26.28 31.261,26.795C31.451,27.152 31.818,27.357 32.196,27.357Z" style="fill-rule:nonzero;"/>
    <path d="M38.984,28.316C38.711,27.801 38.072,27.604 37.557,27.877L31.702,30.978C31.187,31.25 30.991,31.891 31.263,32.406C31.453,32.765 31.818,32.968 32.196,32.968C32.363,32.968 32.532,32.928 32.688,32.846L38.543,29.744C39.06,29.472 39.256,28.831 38.984,28.316Z" style="fill-rule:nonzero;"/>
</svg>
