<svg width="56" height="56" viewBox="0 0 56 56" fill="none" xmlns="http://www.w3.org/2000/svg">
<path d="M1 10H39V46.5L42 52H1V10Z" fill="#F9D100"/>
<path d="M47.1414 0C42.4305 0 38.5678 3.70045 38.2978 8.34783H1.06294C0.476198 8.34783 0 8.82448 0 9.41179V52.6022C0 53.1895 0.476198 53.6661 1.06294 53.6661H47.1414C52.0267 53.6661 56 49.689 56 44.7991V8.86917C56.0021 3.97921 52.0267 0 47.1414 0ZM2.12588 51.5403V10.4779H38.2829V44.7991C38.2829 47.4952 39.4925 49.9104 41.3952 51.5382H2.12588V51.5403ZM47.1414 51.5403C43.4297 51.5403 40.4088 48.5166 40.4088 44.8012C40.4088 41.0859 43.4297 38.0621 47.1414 38.0621C50.8532 38.0621 53.8741 41.0859 53.8741 44.8012C53.8762 48.5166 50.8554 51.5403 47.1414 51.5403ZM47.1414 35.932C44.448 35.932 42.0351 37.1428 40.4088 39.0473V8.86917C40.4088 5.15383 43.4297 2.13005 47.1414 2.13005C50.8532 2.13005 53.8741 5.15383 53.8741 8.86917V39.0473C52.2499 37.1428 49.8349 35.932 47.1414 35.932Z" fill="black"/>
<path d="M47.1414 40.6135C44.8349 40.6135 42.9598 42.4925 42.9598 44.7991C42.9598 47.1079 44.837 48.9848 47.1414 48.9848C49.448 48.9848 51.323 47.1058 51.323 44.7991C51.3252 42.4903 49.448 40.6135 47.1414 40.6135ZM47.1414 46.859C46.0083 46.859 45.0857 45.9355 45.0857 44.8013C45.0857 43.6671 46.0083 42.7436 47.1414 42.7436C48.2745 42.7436 49.1972 43.6671 49.1972 44.8013C49.1993 45.9355 48.2767 46.859 47.1414 46.859Z" fill="black"/>
<path d="M32.5898 17.7042H8.07196C7.48521 17.7042 7.00902 18.1809 7.00902 18.7682V23.1581C6.53707 23.2666 6.18417 23.6879 6.18417 24.1923C6.18417 24.7796 6.66037 25.2562 7.24711 25.2562H8.89467C9.48142 25.2562 9.95762 24.7796 9.95762 24.1923C9.95762 23.6879 9.60472 23.2666 9.13277 23.1581V19.8321H15.689V35.0191H9.1349V32.04C9.60684 31.9315 9.95974 31.5102 9.95974 31.0058C9.95974 30.4185 9.48354 29.9419 8.8968 29.9419H7.24924C6.6625 29.9419 6.1863 30.4185 6.1863 31.0058C6.1863 31.5102 6.5392 31.9315 7.01114 32.04V43.2478C7.01114 43.8351 7.48734 44.3117 8.07408 44.3117H19.2711V44.8586C19.2711 45.4459 19.7473 45.9226 20.334 45.9226C20.9208 45.9226 21.397 45.4459 21.397 44.8586V44.3117H24.8345V44.8586C24.8345 45.4459 25.3107 45.9226 25.8975 45.9226C26.4842 45.9226 26.9604 45.4459 26.9604 44.8586V44.3117H32.594C33.1808 44.3117 33.657 43.8351 33.657 43.2478V18.7682C33.6527 18.1809 33.1765 17.7042 32.5898 17.7042ZM31.5268 42.1859H26.9562V41.6391C26.9562 41.0518 26.48 40.5751 25.8932 40.5751C25.3065 40.5751 24.8303 41.0518 24.8303 41.6391V42.1859H21.3927V41.6391C21.3927 41.0518 20.9165 40.5751 20.3298 40.5751C19.7431 40.5751 19.2669 41.0518 19.2669 41.6391V42.1859H9.1349V37.1491H16.7519C17.3387 37.1491 17.8149 36.6725 17.8149 36.0852V32.9295H25.8932C26.48 32.9295 26.9562 32.4528 26.9562 31.8655C26.9562 31.2782 26.48 30.8016 25.8932 30.8016H17.8149V19.8343H24.8303V26.084C24.8303 26.6713 25.3065 27.1479 25.8932 27.1479C26.48 27.1479 26.9562 26.6713 26.9562 26.084V19.8343H31.5268V42.1859Z" fill="black"/>
</svg>
