<?xml version="1.0" encoding="UTF-8" standalone="no"?>
<!DOCTYPE svg PUBLIC "-//W3C//DTD SVG 1.1//EN" "http://www.w3.org/Graphics/SVG/1.1/DTD/svg11.dtd">
<svg width="100%" height="100%" viewBox="0 0 16 16" version="1.1" xmlns="http://www.w3.org/2000/svg" xmlns:xlink="http://www.w3.org/1999/xlink" xml:space="preserve" xmlns:serif="http://www.serif.com/" style="fill-rule:evenodd;clip-rule:evenodd;stroke-linejoin:round;stroke-miterlimit:2;">
    <path d="M5.915,3.294L3.454,5.75C3.454,5.75 3.214,6.049 3.574,6.349C5.555,8.445 7.596,10.422 9.697,12.458C9.997,12.758 10.297,12.518 10.297,12.518L12.758,10.122L16,13.416C16,13.416 15.52,14.195 14.379,15.153C13.179,16.112 11.978,16.291 9.817,15.513C6.275,14.195 1.773,9.763 0.512,6.169C-0.268,4.013 -0.148,2.815 0.812,1.617C1.773,0.479 2.613,0 2.613,0L5.915,3.294Z" style="fill:white;"/>
</svg>
