<?xml version="1.0" encoding="UTF-8" standalone="no"?>
<!DOCTYPE svg PUBLIC "-//W3C//DTD SVG 1.1//EN" "http://www.w3.org/Graphics/SVG/1.1/DTD/svg11.dtd">
<svg width="100%" height="100%" viewBox="0 0 150 150" version="1.1" xmlns="http://www.w3.org/2000/svg" xmlns:xlink="http://www.w3.org/1999/xlink" xml:space="preserve" xmlns:serif="http://www.serif.com/" style="fill-rule:evenodd;clip-rule:evenodd;stroke-linejoin:round;stroke-miterlimit:2;">
    <circle cx="75" cy="75" r="75" style="fill:rgb(249,209,0);"/>
    <g transform="matrix(0.855285,0,0,0.855285,7.45307,-3.18845)">
        <g transform="matrix(86.1659,0,0,86.1659,37.2717,101.69)">
            <path d="M0.162,-0.496L0.03,-0.429L0.03,-0.548L0.19,-0.649L0.308,-0.649L0.308,-0L0.162,-0L0.162,-0.496Z" style="fill-rule:nonzero;"/>
        </g>
        <g transform="matrix(86.1659,0,0,86.1659,72.5135,101.69)">
            <path d="M0.289,0.01C0.26,0.01 0.236,0.009 0.217,0.007C0.198,0.005 0.178,0.001 0.156,-0.005C0.133,-0.012 0.115,-0.021 0.101,-0.034C0.087,-0.046 0.075,-0.064 0.066,-0.087C0.056,-0.11 0.051,-0.137 0.051,-0.169L0.051,-0.48C0.051,-0.511 0.056,-0.538 0.065,-0.561C0.074,-0.584 0.086,-0.603 0.101,-0.616C0.114,-0.627 0.131,-0.636 0.153,-0.644C0.175,-0.651 0.197,-0.655 0.219,-0.657C0.244,-0.658 0.268,-0.659 0.289,-0.659C0.319,-0.659 0.343,-0.658 0.361,-0.657C0.379,-0.655 0.399,-0.651 0.421,-0.644C0.445,-0.637 0.464,-0.627 0.478,-0.615C0.492,-0.603 0.504,-0.586 0.514,-0.563C0.524,-0.54 0.529,-0.513 0.529,-0.48L0.529,-0.169C0.529,-0.138 0.524,-0.111 0.515,-0.088C0.505,-0.065 0.493,-0.047 0.478,-0.034C0.465,-0.023 0.447,-0.013 0.424,-0.006C0.401,0.001 0.379,0.006 0.358,0.007C0.339,0.009 0.316,0.01 0.289,0.01ZM0.291,-0.084C0.319,-0.084 0.339,-0.086 0.351,-0.09C0.363,-0.093 0.371,-0.1 0.375,-0.11C0.379,-0.12 0.381,-0.136 0.381,-0.159L0.381,-0.49C0.381,-0.513 0.379,-0.529 0.375,-0.539C0.371,-0.549 0.363,-0.556 0.351,-0.56C0.339,-0.563 0.319,-0.565 0.291,-0.565C0.262,-0.565 0.242,-0.563 0.23,-0.56C0.217,-0.556 0.209,-0.549 0.205,-0.539C0.201,-0.529 0.199,-0.513 0.199,-0.49L0.199,-0.159C0.199,-0.136 0.201,-0.12 0.205,-0.11C0.209,-0.1 0.217,-0.093 0.23,-0.09C0.242,-0.086 0.262,-0.084 0.291,-0.084Z" style="fill-rule:nonzero;"/>
        </g>
        <g transform="matrix(30,0,0,30,50.5257,137.69)">
            <path d="M0.104,0.008C0.093,0.008 0.082,0.007 0.07,0.005C0.058,0.002 0.049,0.001 0.044,-0L0.044,-0.122C0.059,-0.12 0.071,-0.119 0.081,-0.119C0.114,-0.119 0.14,-0.129 0.158,-0.148C0.176,-0.166 0.189,-0.204 0.198,-0.261C0.206,-0.318 0.21,-0.404 0.21,-0.519L0.21,-0.649L0.682,-0.649L0.682,-0L0.526,-0L0.526,-0.539L0.351,-0.539L0.351,-0.449C0.351,-0.326 0.34,-0.23 0.318,-0.163C0.295,-0.096 0.266,-0.05 0.231,-0.027C0.195,-0.004 0.153,0.008 0.104,0.008Z" style="fill-rule:nonzero;"/>
        </g>
        <g transform="matrix(30,0,0,30,73.0857,137.69)">
            <path d="M0.07,-0.649L0.565,-0.649L0.565,-0.538L0.226,-0.538L0.226,-0.389L0.532,-0.389L0.532,-0.278L0.226,-0.278L0.226,-0.111L0.575,-0.111L0.575,-0L0.07,-0L0.07,-0.649Z" style="fill-rule:nonzero;"/>
        </g>
        <g transform="matrix(30,0,0,30,91.3857,137.69)">
            <path d="M0.22,-0.538L0.02,-0.538L0.02,-0.649L0.575,-0.649L0.575,-0.538L0.376,-0.538L0.376,-0L0.22,-0L0.22,-0.538Z" style="fill-rule:nonzero;"/>
        </g>
    </g>
</svg>
