<?xml version="1.0" encoding="UTF-8" standalone="no"?>
<!DOCTYPE svg PUBLIC "-//W3C//DTD SVG 1.1//EN" "http://www.w3.org/Graphics/SVG/1.1/DTD/svg11.dtd">
<svg width="100%" height="100%" viewBox="0 0 184 50" version="1.1" xmlns="http://www.w3.org/2000/svg" xmlns:xlink="http://www.w3.org/1999/xlink" xml:space="preserve" xmlns:serif="http://www.serif.com/" style="fill-rule:evenodd;clip-rule:evenodd;stroke-linejoin:round;stroke-miterlimit:2;">
    <g id="logotype_area" transform="matrix(1.94614,0,0,1,0,0)">
        <rect x="0" y="0" width="94.349" height="50" style="fill:none;"/>
        <g transform="matrix(0.513837,0,0,1,0,5e-05)">
            <path d="M24.999,0C11.201,0 0,11.201 0,24.999C0,29.046 0.979,32.922 2.726,36.288L6.559,33.391L6.601,33.348L7.199,32.879L13.202,28.323L13.245,28.28L13.842,27.853L19.846,23.298L19.888,23.253L20.486,22.785L26.49,18.229L26.533,18.185L39.737,8.135L40.29,7.71L40.801,8.135L46.721,12.607C42.419,5.068 34.284,0 24.999,0Z" style="fill:white;"/>
            <path d="M49.915,26.747L49.915,26.576L40.801,19.633L40.29,19.208L39.737,19.633L28.066,28.493L28.066,31.73L40.29,22.445L49.575,29.515C49.447,30.239 49.277,30.963 49.064,31.688L40.801,25.384L40.29,24.958L39.737,25.384L28.066,34.285L28.066,37.479L40.29,28.195L48.212,34.242C47.957,34.882 47.701,35.52 47.361,36.116L40.801,31.133L40.29,30.75L39.737,31.133L28.066,40.035L28.066,43.229L40.29,33.944L46.126,38.373C45.74,38.927 45.359,39.482 44.932,40.035L40.801,36.883L40.29,36.5L39.737,36.883L28.066,45.785L28.066,48.979L40.29,39.694L43.314,41.993C38.756,46.892 32.24,50 24.999,50C16.184,50 8.432,45.443 4.002,38.544L7.199,36.116L20.486,25.98L27.087,20.954L33.732,15.886L40.29,10.947L46.807,15.886L48.808,17.419C49.149,18.441 49.405,19.506 49.575,20.571L40.801,13.883L40.29,13.458L39.737,13.883L28.066,22.743L28.066,25.98L40.29,16.695L49.915,24.021L49.915,23.213C49.958,23.808 50,24.404 50,24.999C50,25.597 49.958,26.193 49.915,26.747Z"/>
        </g>
        <g id="logo_text" style="fill:#ffffff" transform="matrix(0.513837,0,0,1,-7.87642,0.652987)">
            <g transform="matrix(1,0,0,1,74.727,20.747)">
                <g transform="matrix(14,0,0,14,0,0)">
                    <path d="M0.357,0.01C0.328,0.01 0.302,0.009 0.279,0.006C0.256,0.003 0.23,-0.002 0.203,-0.009C0.172,-0.017 0.147,-0.028 0.127,-0.041C0.107,-0.054 0.09,-0.072 0.077,-0.095C0.063,-0.118 0.056,-0.146 0.056,-0.178L0.056,-0.463C0.056,-0.594 0.156,-0.659 0.357,-0.659C0.408,-0.659 0.477,-0.652 0.563,-0.637L0.563,-0.52C0.486,-0.539 0.418,-0.548 0.359,-0.548C0.334,-0.548 0.315,-0.547 0.302,-0.546C0.288,-0.545 0.274,-0.541 0.259,-0.536C0.228,-0.525 0.212,-0.502 0.212,-0.465L0.212,-0.189C0.212,-0.13 0.266,-0.101 0.373,-0.101C0.419,-0.101 0.484,-0.111 0.567,-0.13L0.567,-0.012C0.496,0.003 0.426,0.01 0.357,0.01Z" style="fill-rule:nonzero;"/>
                </g>
                <g transform="matrix(14,0,0,14,8.358,0)">
                    <path d="M0.22,-0.538L0.02,-0.538L0.02,-0.649L0.575,-0.649L0.575,-0.538L0.376,-0.538L0.376,-0L0.22,-0L0.22,-0.538Z" style="fill-rule:nonzero;"/>
                </g>
                <g transform="matrix(14,0,0,14,16.688,0)">
                    <path d="M0.07,-0.649L0.33,-0.649C0.393,-0.649 0.444,-0.645 0.481,-0.636C0.518,-0.627 0.545,-0.612 0.562,-0.591C0.579,-0.569 0.587,-0.539 0.587,-0.5L0.587,-0.377C0.587,-0.334 0.578,-0.301 0.56,-0.277C0.541,-0.253 0.512,-0.236 0.473,-0.226C0.433,-0.216 0.379,-0.211 0.312,-0.211L0.226,-0.211L0.226,-0L0.07,-0L0.07,-0.649ZM0.325,-0.318C0.366,-0.318 0.394,-0.323 0.411,-0.333C0.428,-0.342 0.436,-0.359 0.436,-0.382L0.436,-0.486C0.436,-0.507 0.428,-0.521 0.412,-0.528C0.397,-0.535 0.367,-0.538 0.323,-0.538L0.226,-0.538L0.226,-0.318L0.325,-0.318Z" style="fill-rule:nonzero;"/>
                </g>
                <g transform="matrix(14,0,0,14,25.466,0)">
                    <path d="M0.363,0.01C0.327,0.01 0.294,0.008 0.264,0.003C0.233,-0.002 0.202,-0.01 0.169,-0.021C0.134,-0.033 0.106,-0.053 0.086,-0.08C0.066,-0.107 0.056,-0.139 0.056,-0.178L0.056,-0.462C0.056,-0.494 0.063,-0.523 0.078,-0.548C0.092,-0.573 0.11,-0.593 0.133,-0.608C0.153,-0.621 0.178,-0.631 0.207,-0.64C0.236,-0.649 0.264,-0.654 0.289,-0.656C0.312,-0.658 0.337,-0.659 0.363,-0.659C0.394,-0.659 0.42,-0.658 0.443,-0.656C0.466,-0.653 0.491,-0.648 0.519,-0.641C0.551,-0.632 0.577,-0.62 0.598,-0.607C0.619,-0.594 0.636,-0.575 0.65,-0.551C0.665,-0.526 0.672,-0.497 0.672,-0.462L0.672,-0.178C0.672,-0.142 0.663,-0.111 0.644,-0.085C0.624,-0.059 0.598,-0.039 0.565,-0.026C0.505,-0.002 0.438,0.01 0.363,0.01ZM0.365,-0.101C0.387,-0.101 0.405,-0.102 0.421,-0.104C0.436,-0.105 0.451,-0.108 0.467,-0.113C0.483,-0.118 0.495,-0.126 0.504,-0.137C0.512,-0.148 0.516,-0.161 0.516,-0.178L0.516,-0.463C0.516,-0.494 0.504,-0.516 0.479,-0.529C0.454,-0.542 0.416,-0.548 0.364,-0.548C0.312,-0.548 0.274,-0.542 0.249,-0.529C0.224,-0.516 0.212,-0.494 0.212,-0.463L0.212,-0.178C0.212,-0.161 0.216,-0.148 0.225,-0.137C0.234,-0.126 0.246,-0.118 0.263,-0.113C0.279,-0.108 0.295,-0.105 0.31,-0.104C0.325,-0.102 0.343,-0.101 0.365,-0.101Z" style="fill-rule:nonzero;"/>
                </g>
                <g transform="matrix(14,0,0,14,35.658,0)">
                    <path d="M0.07,-0.649L0.226,-0.649L0.226,-0.205L0.506,-0.649L0.662,-0.649L0.662,-0L0.506,-0L0.506,-0.451L0.226,-0L0.07,-0L0.07,-0.649Z" style="fill-rule:nonzero;"/>
                </g>
                <g transform="matrix(14,0,0,14,45.906,0)">
                    <path d="M0.22,-0.538L0.02,-0.538L0.02,-0.649L0.575,-0.649L0.575,-0.538L0.376,-0.538L0.376,-0L0.22,-0L0.22,-0.538Z" style="fill-rule:nonzero;"/>
                </g>
                <g transform="matrix(14,0,0,14,54.236,0)">
                    <path d="M0.07,-0.649L0.565,-0.649L0.565,-0.538L0.226,-0.538L0.226,-0.389L0.532,-0.389L0.532,-0.278L0.226,-0.278L0.226,-0.111L0.575,-0.111L0.575,-0L0.07,-0L0.07,-0.649Z" style="fill-rule:nonzero;"/>
                </g>
                <g transform="matrix(14,0,0,14,62.776,0)">
                    <path d="M0.104,0.008C0.093,0.008 0.082,0.007 0.07,0.005C0.058,0.002 0.049,0.001 0.044,-0L0.044,-0.122C0.059,-0.12 0.071,-0.119 0.081,-0.119C0.114,-0.119 0.14,-0.129 0.158,-0.148C0.176,-0.166 0.189,-0.204 0.198,-0.261C0.206,-0.318 0.21,-0.404 0.21,-0.519L0.21,-0.649L0.682,-0.649L0.682,-0L0.526,-0L0.526,-0.539L0.351,-0.539L0.351,-0.449C0.351,-0.326 0.34,-0.23 0.318,-0.163C0.295,-0.096 0.266,-0.05 0.231,-0.027C0.195,-0.004 0.153,0.008 0.104,0.008Z" style="fill-rule:nonzero;"/>
                </g>
                <g transform="matrix(14,0,0,14,73.304,0)">
                    <path d="M0.07,-0.649L0.226,-0.649L0.226,-0.411L0.304,-0.411C0.368,-0.411 0.419,-0.408 0.457,-0.403C0.494,-0.397 0.524,-0.384 0.546,-0.365C0.567,-0.345 0.578,-0.315 0.578,-0.276L0.578,-0.154C0.578,-0.051 0.491,-0 0.316,-0L0.07,-0L0.07,-0.649ZM0.309,-0.111C0.348,-0.111 0.377,-0.117 0.395,-0.128C0.413,-0.139 0.422,-0.155 0.422,-0.178L0.422,-0.247C0.422,-0.268 0.413,-0.282 0.396,-0.289C0.379,-0.296 0.35,-0.3 0.311,-0.3L0.225,-0.3L0.225,-0.111L0.309,-0.111Z" style="fill-rule:nonzero;"/>
                </g>
                <g transform="matrix(14,0,0,14,81.956,0)">
                    <path d="M0.07,-0.649L0.226,-0.649L0.226,-0.389L0.502,-0.389L0.502,-0.649L0.658,-0.649L0.658,-0L0.502,-0L0.502,-0.278L0.226,-0.278L0.226,-0L0.07,-0L0.07,-0.649Z" style="fill-rule:nonzero;"/>
                </g>
                <g transform="matrix(14,0,0,14,92.148,0)">
                    <path d="M0.07,-0.649L0.226,-0.649L0.226,-0.411L0.308,-0.411C0.367,-0.411 0.415,-0.408 0.452,-0.402C0.489,-0.396 0.518,-0.383 0.539,-0.364C0.56,-0.344 0.571,-0.315 0.571,-0.276L0.571,-0.154C0.571,-0.051 0.484,-0 0.309,-0L0.07,-0L0.07,-0.649ZM0.67,-0.649L0.826,-0.649L0.826,-0L0.67,-0L0.67,-0.649ZM0.302,-0.111C0.341,-0.111 0.37,-0.117 0.388,-0.128C0.406,-0.139 0.415,-0.155 0.415,-0.178L0.415,-0.247C0.415,-0.268 0.406,-0.282 0.389,-0.289C0.372,-0.296 0.343,-0.3 0.304,-0.3L0.225,-0.3L0.225,-0.111L0.302,-0.111Z" style="fill-rule:nonzero;"/>
                </g>
                <g transform="matrix(14,0,0,14,104.692,0)">
                    <path d="M0.07,-0.649L0.565,-0.649L0.565,-0.538L0.226,-0.538L0.226,-0.389L0.532,-0.389L0.532,-0.278L0.226,-0.278L0.226,-0.111L0.575,-0.111L0.575,-0L0.07,-0L0.07,-0.649Z" style="fill-rule:nonzero;"/>
                </g>
            </g>
            <g transform="matrix(1,0,0,1,74.727,37.747)">
                <g transform="matrix(14,0,0,14,0,0)">
                    <path d="M0.07,-0.649L0.33,-0.649C0.393,-0.649 0.444,-0.645 0.481,-0.636C0.518,-0.627 0.545,-0.612 0.562,-0.591C0.579,-0.569 0.587,-0.539 0.587,-0.5L0.587,-0.377C0.587,-0.334 0.578,-0.301 0.56,-0.277C0.541,-0.253 0.512,-0.236 0.473,-0.226C0.433,-0.216 0.379,-0.211 0.312,-0.211L0.226,-0.211L0.226,-0L0.07,-0L0.07,-0.649ZM0.325,-0.318C0.366,-0.318 0.394,-0.323 0.411,-0.333C0.428,-0.342 0.436,-0.359 0.436,-0.382L0.436,-0.486C0.436,-0.507 0.428,-0.521 0.412,-0.528C0.397,-0.535 0.367,-0.538 0.323,-0.538L0.226,-0.538L0.226,-0.318L0.325,-0.318Z" style="fill-rule:nonzero;"/>
                </g>
                <g transform="matrix(14,0,0,14,8.778,0)">
                    <path d="M0.07,-0.649L0.565,-0.649L0.565,-0.538L0.226,-0.538L0.226,-0.389L0.532,-0.389L0.532,-0.278L0.226,-0.278L0.226,-0.111L0.575,-0.111L0.575,-0L0.07,-0L0.07,-0.649Z" style="fill-rule:nonzero;"/>
                </g>
                <g transform="matrix(14,0,0,14,17.318,0)">
                    <path d="M0.07,-0.649L0.226,-0.649L0.226,-0.11L0.43,-0.11L0.43,-0.649L0.586,-0.649L0.586,-0.11L0.79,-0.11L0.79,-0.649L0.946,-0.649L0.946,-0L0.07,-0L0.07,-0.649Z" style="fill-rule:nonzero;"/>
                </g>
                <g transform="matrix(14,0,0,14,31.542,0)">
                    <path d="M0.07,-0.649L0.565,-0.649L0.565,-0.538L0.226,-0.538L0.226,-0.389L0.532,-0.389L0.532,-0.278L0.226,-0.278L0.226,-0.111L0.575,-0.111L0.575,-0L0.07,-0L0.07,-0.649Z" style="fill-rule:nonzero;"/>
                </g>
                <g transform="matrix(14,0,0,14,40.082,0)">
                    <path d="M0.07,-0.649L0.226,-0.649L0.226,-0.389L0.502,-0.389L0.502,-0.649L0.658,-0.649L0.658,-0L0.502,-0L0.502,-0.278L0.226,-0.278L0.226,-0L0.07,-0L0.07,-0.649Z" style="fill-rule:nonzero;"/>
                </g>
                <g transform="matrix(14,0,0,14,50.274,0)">
                    <path d="M0.07,-0.649L0.226,-0.649L0.226,-0.205L0.506,-0.649L0.662,-0.649L0.662,-0L0.506,-0L0.506,-0.451L0.226,-0L0.07,-0L0.07,-0.649Z" style="fill-rule:nonzero;"/>
                </g>
                <g transform="matrix(14,0,0,14,60.522,0)">
                    <path d="M0.19,-0.252C0.148,-0.257 0.117,-0.271 0.096,-0.292C0.075,-0.313 0.065,-0.344 0.065,-0.383L0.065,-0.512C0.065,-0.561 0.084,-0.596 0.123,-0.618C0.162,-0.639 0.224,-0.649 0.311,-0.649L0.598,-0.649L0.598,-0L0.442,-0L0.442,-0.24L0.35,-0.24L0.198,-0L0.02,-0L0.19,-0.252ZM0.442,-0.343L0.442,-0.538L0.313,-0.538C0.278,-0.538 0.254,-0.534 0.24,-0.525C0.225,-0.516 0.218,-0.499 0.218,-0.475L0.218,-0.414C0.218,-0.386 0.225,-0.367 0.238,-0.358C0.251,-0.348 0.276,-0.343 0.313,-0.343L0.442,-0.343Z" style="fill-rule:nonzero;"/>
                </g>
            </g>
        </g>
    </g>
</svg>
