<?xml version="1.0" encoding="UTF-8" standalone="no"?>
<!DOCTYPE svg PUBLIC "-//W3C//DTD SVG 1.1//EN" "http://www.w3.org/Graphics/SVG/1.1/DTD/svg11.dtd">
<svg width="100%" height="100%" viewBox="0 0 50 50" version="1.1" xmlns="http://www.w3.org/2000/svg" xmlns:xlink="http://www.w3.org/1999/xlink" xml:space="preserve" xmlns:serif="http://www.serif.com/" style="fill-rule:evenodd;clip-rule:evenodd;stroke-linejoin:round;stroke-miterlimit:2;">
    <g id="Artboard1" transform="matrix(0.529946,0,0,1,0,0)">
        <rect x="0" y="0" width="94.349" height="50" style="fill:none;"/>
        <clipPath id="_clip1">
            <rect x="0" y="0" width="94.349" height="50"/>
        </clipPath>
        <g clip-path="url(#_clip1)">
            <g transform="matrix(1.93791,0,0,1.02699,-2.54632,-2.90151)">
                <circle cx="25.657" cy="27.168" r="24.343" style="fill:rgb(249,209,0);"/>
            </g>
            <g transform="matrix(1.88699,0,0,1,0,5e-05)">
                <path d="M24.999,0C11.201,0 0,11.201 0,24.999C0,29.046 0.979,32.922 2.726,36.288L6.559,33.391L6.601,33.348L7.199,32.879L13.202,28.323L13.245,28.28L13.842,27.853L19.846,23.298L19.888,23.253L20.486,22.785L26.49,18.229L26.533,18.185L39.737,8.135L40.29,7.71L40.801,8.135L46.721,12.607C42.419,5.068 34.284,0 24.999,0Z" style="fill:white;"/>
                <path d="M49.915,26.747L49.915,26.576L40.801,19.633L40.29,19.208L39.737,19.633L28.066,28.493L28.066,31.73L40.29,22.445L49.575,29.515C49.447,30.239 49.277,30.963 49.064,31.688L40.801,25.384L40.29,24.958L39.737,25.384L28.066,34.285L28.066,37.479L40.29,28.195L48.212,34.242C47.957,34.882 47.701,35.52 47.361,36.116L40.801,31.133L40.29,30.75L39.737,31.133L28.066,40.035L28.066,43.229L40.29,33.944L46.126,38.373C45.74,38.927 45.359,39.482 44.932,40.035L40.801,36.883L40.29,36.5L39.737,36.883L28.066,45.785L28.066,48.979L40.29,39.694L43.314,41.993C38.756,46.892 32.24,50 24.999,50C16.184,50 8.432,45.443 4.002,38.544L7.199,36.116L20.486,25.98L27.087,20.954L33.732,15.886L40.29,10.947L46.807,15.886L48.808,17.419C49.149,18.441 49.405,19.506 49.575,20.571L40.801,13.883L40.29,13.458L39.737,13.883L28.066,22.743L28.066,25.98L40.29,16.695L49.915,24.021L49.915,23.213C49.958,23.808 50,24.404 50,24.999C50,25.597 49.958,26.193 49.915,26.747Z"/>
            </g>
        </g>
    </g>
</svg>
