<?xml version="1.0" encoding="UTF-8" standalone="no"?>
<!DOCTYPE svg PUBLIC "-//W3C//DTD SVG 1.1//EN" "http://www.w3.org/Graphics/SVG/1.1/DTD/svg11.dtd">
<svg width="100%" height="100%" viewBox="0 0 100 100" version="1.1" xmlns="http://www.w3.org/2000/svg" xmlns:xlink="http://www.w3.org/1999/xlink" xml:space="preserve" xmlns:serif="http://www.serif.com/" style="fill-rule:evenodd;clip-rule:evenodd;stroke-linejoin:round;stroke-miterlimit:2;">
    <g>
        <path d="M26,97.4L26,98.7L28.6,98.7L28.6,100L23.4,100L23.4,97.4L26,97.4ZM100,100L98.7,100L98.7,98.7L97.4,98.7L97.4,97.4L100,97.4L100,100ZM97.4,98.7L97.4,100L93.5,100L93.5,98.7L97.4,98.7ZM92.2,98.7L90.9,98.7L90.9,100L92.2,100L92.2,98.7ZM90.9,97.4L90.9,98.7L89.6,98.7L89.6,100L88.3,100L88.3,97.4L90.9,97.4ZM22.1,100L19.5,100L19.5,97.4L22.1,97.4L22.1,100ZM33.8,98.7L32.5,98.7L32.5,100L33.8,100L33.8,98.7ZM10.4,97.4L11.7,97.4L11.7,98.7L13,98.7L13,100L10.4,100L10.4,97.4ZM37.7,98.7L36.4,98.7L36.4,100L37.7,100L37.7,98.7ZM41.6,98.7L41.6,100L39,100L39,98.7L41.6,98.7ZM42.9,98.7L41.6,98.7L41.6,100L42.9,100L42.9,98.7ZM87,98.7L85.7,98.7L85.7,100L87,100L87,98.7ZM44.2,97.4L45.5,97.4L45.5,98.7L48.1,98.7L48.1,100L44.2,100L44.2,97.4ZM50.7,97.4L50.7,98.7L51.9,98.7L51.9,100L49.4,100L49.4,98.7L48.1,98.7L48.1,97.4L50.7,97.4ZM57.1,100L53.2,100L53.2,98.7L55.8,98.7L55.8,97.4L57.1,97.4L57.1,100ZM77.9,97.4L79.2,97.4L79.2,98.7L80.5,98.7L80.5,100L77.9,100L77.9,97.4ZM67.5,98.7L67.5,97.4L68.8,97.4L68.8,98.7L70.1,98.7L70.1,100L66.2,100L66.2,98.7L67.5,98.7ZM62.3,97.4L62.3,98.7L63.6,98.7L63.6,100L59.7,100L59.7,97.4L62.3,97.4ZM58.4,98.7L57.1,98.7L57.1,100L58.4,100L58.4,98.7ZM64.9,98.7L63.6,98.7L63.6,100L64.9,100L64.9,98.7ZM18.2,100L15.6,100L15.6,97.4L18.2,97.4L18.2,100ZM77.9,97.4L77.9,98.7L76.6,98.7L76.6,100L75.3,100L75.3,97.4L77.9,97.4ZM9.1,90.9L0,90.9L0,100L9.1,100L9.1,90.9ZM72.7,97.4L71.4,97.4L71.4,98.7L72.7,98.7L72.7,97.4ZM83.1,97.4L81.8,97.4L81.8,98.7L83.1,98.7L83.1,97.4ZM93.5,97.4L92.2,97.4L92.2,98.7L93.5,98.7L93.5,97.4ZM71.4,97.4L70.1,97.4L70.1,98.7L71.4,98.7L71.4,97.4ZM66.2,97.4L64.9,97.4L64.9,98.7L66.2,98.7L66.2,97.4ZM59.7,97.4L58.4,97.4L58.4,98.7L59.7,98.7L59.7,97.4ZM44.2,97.4L42.9,97.4L42.9,98.7L44.2,98.7L44.2,97.4ZM39,97.4L37.7,97.4L37.7,98.7L39,98.7L39,97.4ZM14.3,97.4L13,97.4L13,98.7L14.3,98.7L14.3,97.4ZM53.2,97.4L51.9,97.4L51.9,98.7L53.2,98.7L53.2,97.4ZM31.2,97.4L31.2,98.7L28.6,98.7L28.6,97.4L31.2,97.4ZM7.8,92.2L7.8,98.7L1.3,98.7L1.3,92.2L7.8,92.2ZM6.5,93.5L2.6,93.5L2.6,97.4L6.5,97.4L6.5,93.5ZM94.8,93.5L97.4,93.5L97.4,97.4L96.1,97.4L96.1,96.1L94.8,96.1L94.8,97.4L93.5,97.4L93.5,96.1L92.2,96.1L92.2,97.4L90.9,97.4L90.9,93.5L93.5,93.5L93.5,90.9L94.8,90.9L94.8,93.5ZM26,96.1L24.7,96.1L24.7,97.4L26,97.4L26,96.1ZM18.2,96.1L16.9,96.1L16.9,97.4L18.2,97.4L18.2,96.1ZM10.4,93.5L10.4,92.2L11.7,92.2L11.7,93.5L14.3,93.5L14.3,94.8L15.6,94.8L15.6,96.1L14.3,96.1L14.3,97.4L13,97.4L13,94.8L11.7,94.8L11.7,93.5L10.4,93.5ZM41.6,96.1L40.3,96.1L40.3,97.4L37.7,97.4L37.7,96.1L39,96.1L39,94.8L40.3,94.8L40.3,93.5L41.6,93.5L41.6,96.1ZM66.2,93.5L67.5,93.5L67.5,94.8L70.1,94.8L70.1,96.1L67.5,96.1L67.5,97.4L64.9,97.4L64.9,96.1L66.2,96.1L66.2,94.8L63.6,94.8L63.6,93.5L64.9,93.5L64.9,90.9L66.2,90.9L66.2,93.5ZM79.2,96.1L77.9,96.1L77.9,97.4L79.2,97.4L79.2,96.1ZM76.6,96.1L75.3,96.1L75.3,97.4L76.6,97.4L76.6,96.1ZM89.6,93.5L90.9,93.5L90.9,97.4L89.6,97.4L89.6,96.1L88.3,96.1L88.3,94.8L87,94.8L87,96.1L88.3,96.1L88.3,97.4L84.4,97.4L84.4,96.1L85.7,96.1L85.7,94.8L87,94.8L87,93.5L88.3,93.5L88.3,90.9L89.6,90.9L89.6,93.5ZM29.9,92.2L31.2,92.2L31.2,90.9L32.5,90.9L32.5,93.5L35.1,93.5L35.1,97.4L28.6,97.4L28.6,96.1L33.8,96.1L33.8,94.8L29.9,94.8L29.9,93.5L28.6,93.5L28.6,90.9L29.9,90.9L29.9,92.2ZM20.8,94.8L22.1,94.8L22.1,96.1L23.4,96.1L23.4,97.4L20.8,97.4L20.8,94.8ZM45.5,96.1L44.2,96.1L44.2,97.4L45.5,97.4L45.5,96.1ZM50.6,93.5L50.6,92.2L51.9,92.2L51.9,93.5L53.2,93.5L53.2,94.8L51.9,94.8L51.9,96.1L53.2,96.1L53.2,97.4L49.4,97.4L49.4,96.1L50.6,96.1L50.6,94.8L49.4,94.8L49.4,93.5L50.6,93.5ZM55.8,96.1L54.5,96.1L54.5,97.4L55.8,97.4L55.8,96.1ZM61,93.5L63.6,93.5L63.6,97.4L62.3,97.4L62.3,94.8L61,94.8L61,96.1L59.7,96.1L59.7,90.9L61,90.9L61,93.5ZM97.4,94.8L98.7,94.8L98.7,96.1L100,96.1L100,97.4L97.4,97.4L97.4,94.8ZM75.3,94.8L75.3,96.1L74,96.1L74,97.4L72.7,97.4L72.7,94.8L75.3,94.8ZM11.7,96.1L10.4,96.1L10.4,97.4L11.7,97.4L11.7,96.1ZM83.1,94.8L84.4,94.8L84.4,97.4L80.5,97.4L80.5,94.8L81.8,94.8L81.8,92.2L80.5,92.2L80.5,90.9L83.1,90.9L83.1,94.8ZM23.4,90.9L23.4,92.2L24.7,92.2L24.7,93.5L26,93.5L26,92.2L27.3,92.2L27.3,93.5L28.6,93.5L28.6,94.8L27.3,94.8L27.3,96.1L26,96.1L26,94.8L23.4,94.8L23.4,92.2L22.1,92.2L22.1,93.5L20.8,93.5L20.8,94.8L19.5,94.8L19.5,96.1L18.2,96.1L18.2,92.2L19.5,92.2L19.5,90.9L23.4,90.9ZM48.1,93.5L48.1,94.8L46.8,94.8L46.8,96.1L45.5,96.1L45.5,93.5L48.1,93.5ZM54.5,94.8L53.2,94.8L53.2,96.1L54.5,96.1L54.5,94.8ZM59.7,96.1L58.4,96.1L58.4,94.8L57.1,94.8L57.1,93.5L58.4,93.5L58.4,92.2L57.1,92.2L57.1,90.9L59.7,90.9L59.7,96.1ZM37.7,96.1L36.4,96.1L36.4,94.8L35.1,94.8L35.1,93.5L36.4,93.5L36.4,90.9L37.7,90.9L37.7,96.1ZM54.5,90.9L55.8,90.9L55.8,92.2L57.1,92.2L57.1,96.1L55.8,96.1L55.8,93.5L54.5,93.5L54.5,90.9ZM76.6,93.5L75.3,93.5L75.3,94.8L76.6,94.8L76.6,93.5ZM71.4,93.5L70.1,93.5L70.1,94.8L71.4,94.8L71.4,93.5ZM44.2,93.5L44.2,94.8L41.6,94.8L41.6,93.5L44.2,93.5ZM72.7,93.5L71.4,93.5L71.4,94.8L72.7,94.8L72.7,93.5ZM85.7,94.8L84.4,94.8L84.4,92.2L85.7,92.2L85.7,94.8ZM48.1,90.9L48.1,92.2L45.5,92.2L45.5,93.5L44.2,93.5L44.2,90.9L48.1,90.9ZM100,90.9L100,92.2L98.7,92.2L98.7,93.5L97.4,93.5L97.4,90.9L100,90.9ZM77.9,93.5L76.6,93.5L76.6,90.9L77.9,90.9L77.9,93.5ZM75.3,92.2L74,92.2L74,93.5L75.3,93.5L75.3,92.2ZM68.8,92.2L67.5,92.2L67.5,93.5L68.8,93.5L68.8,92.2ZM16.9,92.2L16.9,93.5L14.3,93.5L14.3,92.2L16.9,92.2ZM63.6,90.9L62.3,90.9L62.3,92.2L63.6,92.2L63.6,90.9ZM71.4,90.9L71.4,92.2L68.8,92.2L68.8,90.9L71.4,90.9ZM40.3,90.9L40.3,92.2L37.7,92.2L37.7,90.9L40.3,90.9ZM97.4,90.9L96.1,90.9L96.1,92.2L97.4,92.2L97.4,90.9ZM92.2,90.9L90.9,90.9L90.9,92.2L92.2,92.2L92.2,90.9ZM35.1,90.9L33.8,90.9L33.8,92.2L35.1,92.2L35.1,90.9ZM87,90.9L85.7,90.9L85.7,92.2L87,92.2L87,90.9ZM72.7,90.9L71.4,90.9L71.4,92.2L72.7,92.2L72.7,90.9ZM44.2,90.9L44.2,92.2L41.6,92.2L41.6,90.9L44.2,90.9ZM63.6,88.3L63.6,89.6L61,89.6L61,90.9L59.7,90.9L59.7,88.3L63.6,88.3ZM64.9,87L66.2,87L66.2,88.3L67.5,88.3L67.5,89.6L66.2,89.6L66.2,90.9L64.9,90.9L64.9,89.6L63.6,89.6L63.6,88.3L64.9,88.3L64.9,87ZM11.7,85.7L14.3,85.7L14.3,87L15.6,87L15.6,85.7L16.9,85.7L16.9,87L15.6,87L15.6,88.3L16.9,88.3L16.9,89.6L19.5,89.6L19.5,90.9L14.3,90.9L14.3,89.6L15.6,89.6L15.6,88.3L14.3,88.3L14.3,89.6L13,89.6L13,87L11.7,87L11.7,89.6L13,89.6L13,90.9L10.4,90.9L10.4,89.6L7.8,89.6L7.8,88.3L9.1,88.3L9.1,87L10.4,87L10.4,84.4L11.7,84.4L11.7,85.7ZM93.5,88.3L96.1,88.3L96.1,89.6L97.4,89.6L97.4,90.9L93.5,90.9L93.5,89.6L90.9,89.6L90.9,88.3L92.2,88.3L92.2,87L93.5,87L93.5,88.3ZM84.4,88.3L83.1,88.3L83.1,89.6L81.8,89.6L81.8,90.9L80.5,90.9L80.5,88.3L81.8,88.3L81.8,87L83.1,87L83.1,85.7L84.4,85.7L84.4,88.3ZM72.7,90.9L71.4,90.9L71.4,88.3L72.7,88.3L72.7,90.9ZM24.7,84.4L24.7,85.7L23.4,85.7L23.4,87L24.7,87L24.7,85.7L26,85.7L26,84.4L27.3,84.4L27.3,85.7L28.6,85.7L28.6,84.4L29.9,84.4L29.9,85.7L31.2,85.7L31.2,87L32.5,87L32.5,88.3L35.1,88.3L35.1,89.6L32.5,89.6L32.5,90.9L31.2,90.9L31.2,88.3L29.9,88.3L29.9,89.6L28.6,89.6L28.6,88.3L29.9,88.3L29.9,87L24.7,87L24.7,90.9L22.1,90.9L22.1,89.6L23.4,89.6L23.4,87L22.1,87L22.1,84.4L24.7,84.4ZM90.9,88.3L90.9,89.6L89.6,89.6L89.6,90.9L88.3,90.9L88.3,88.3L90.9,88.3ZM26,88.3L27.3,88.3L27.3,89.6L28.6,89.6L28.6,90.9L26,90.9L26,88.3ZM59.7,90.9L58.4,90.9L58.4,88.3L59.7,88.3L59.7,90.9ZM53.2,88.3L53.2,89.6L51.9,89.6L51.9,90.9L49.4,90.9L49.4,89.6L50.6,89.6L50.6,88.3L53.2,88.3ZM71.4,90.9L70.1,90.9L70.1,88.3L71.4,88.3L71.4,90.9ZM37.7,90.9L36.4,90.9L36.4,89.6L35.1,89.6L35.1,84.4L37.7,84.4L37.7,90.9ZM48.1,89.6L46.8,89.6L46.8,90.9L48.1,90.9L48.1,89.6ZM68.8,89.6L67.5,89.6L67.5,90.9L68.8,90.9L68.8,89.6ZM79.2,90.9L77.9,90.9L77.9,87L79.2,87L79.2,90.9ZM84.4,89.6L83.1,89.6L83.1,90.9L84.4,90.9L84.4,89.6ZM75.3,90.9L74,90.9L74,88.3L75.3,88.3L75.3,90.9ZM77.9,88.3L76.6,88.3L76.6,89.6L77.9,89.6L77.9,88.3ZM53.2,85.7L54.5,85.7L54.5,87L55.8,87L55.8,89.6L54.5,89.6L54.5,88.3L53.2,88.3L53.2,85.7ZM100,89.6L97.4,89.6L97.4,88.3L98.7,88.3L98.7,87L97.4,87L97.4,85.7L100,85.7L100,89.6ZM22.1,88.3L22.1,89.6L19.5,89.6L19.5,88.3L22.1,88.3ZM6.5,84.4L7.8,84.4L7.8,85.7L9.1,85.7L9.1,87L6.5,87L6.5,89.6L1.3,89.6L1.3,88.3L5.2,88.3L5.2,85.7L6.5,85.7L6.5,84.4ZM87,87L85.7,87L85.7,89.6L84.4,89.6L84.4,85.7L85.7,85.7L85.7,84.4L87,84.4L87,87ZM40.3,84.4L40.3,85.7L39,85.7L39,87L40.3,87L40.3,89.6L39,89.6L39,88.3L37.7,88.3L37.7,84.4L40.3,84.4ZM44.2,88.3L42.9,88.3L42.9,89.6L44.2,89.6L44.2,88.3ZM74,87L72.7,87L72.7,88.3L74,88.3L74,87ZM76.6,87L75.3,87L75.3,88.3L76.6,88.3L76.6,87ZM42.9,87L41.6,87L41.6,88.3L42.9,88.3L42.9,87ZM71.4,87L70.1,87L70.1,88.3L68.8,88.3L68.8,87L67.5,87L67.5,85.7L70.1,85.7L70.1,84.4L71.4,84.4L71.4,87ZM75.3,85.7L74,85.7L74,87L75.3,87L75.3,85.7ZM53.2,85.7L51.9,85.7L51.9,87L53.2,87L53.2,85.7ZM50.7,85.7L50.7,87L48.1,87L48.1,85.7L50.7,85.7ZM97.4,87L94.8,87L94.8,84.4L97.4,84.4L97.4,87ZM19.5,87L18.2,87L18.2,84.4L19.5,84.4L19.5,87ZM64.9,87L63.6,87L63.6,84.4L64.9,84.4L64.9,87ZM93.5,84.4L93.5,85.7L92.2,85.7L92.2,87L90.9,87L90.9,84.4L93.5,84.4ZM32.5,84.4L33.8,84.4L33.8,85.7L35.1,85.7L35.1,87L32.5,87L32.5,84.4ZM59.7,87L57.1,87L57.1,85.7L58.4,85.7L58.4,84.4L59.7,84.4L59.7,87ZM61,85.7L59.7,85.7L59.7,87L61,87L61,85.7ZM63.6,85.7L62.3,85.7L62.3,87L63.6,87L63.6,85.7ZM45.5,85.7L44.2,85.7L44.2,87L45.5,87L45.5,85.7ZM81.8,85.7L81.8,87L79.2,87L79.2,85.7L81.8,85.7ZM74,84.4L74,85.7L72.7,85.7L72.7,87L71.4,87L71.4,84.4L74,84.4ZM2.6,85.7L1.3,85.7L1.3,87L2.6,87L2.6,85.7ZM5.2,84.4L3.9,84.4L3.9,85.7L5.2,85.7L5.2,84.4ZM46.8,84.4L45.5,84.4L45.5,85.7L46.8,85.7L46.8,84.4ZM42.9,84.4L41.6,84.4L41.6,85.7L42.9,85.7L42.9,84.4ZM90.9,84.4L90.9,85.7L88.3,85.7L88.3,84.4L90.9,84.4ZM79.2,84.4L77.9,84.4L77.9,85.7L79.2,85.7L79.2,84.4ZM62.3,84.4L61,84.4L61,85.7L62.3,85.7L62.3,84.4ZM2.6,80.5L5.2,80.5L5.2,81.8L3.9,81.8L3.9,83.1L5.2,83.1L5.2,84.4L2.6,84.4L2.6,83.1L1.3,83.1L1.3,84.4L0,84.4L0,83.1L1.3,83.1L1.3,80.5L0,80.5L0,79.2L2.6,79.2L2.6,80.5ZM22.1,80.5L22.1,81.8L23.4,81.8L23.4,83.1L26,83.1L26,81.8L29.9,81.8L29.9,83.1L31.2,83.1L31.2,84.4L28.6,84.4L28.6,83.1L27.3,83.1L27.3,84.4L20.8,84.4L20.8,81.8L19.5,81.8L19.5,84.4L18.2,84.4L18.2,81.8L19.5,81.8L19.5,80.5L22.1,80.5ZM41.6,80.5L40.3,80.5L40.3,84.4L39,84.4L39,81.8L37.7,81.8L37.7,80.5L39,80.5L39,79.2L40.3,79.2L40.3,77.9L41.6,77.9L41.6,80.5ZM48.1,83.1L48.1,84.4L44.2,84.4L44.2,83.1L48.1,83.1ZM49.4,80.5L49.4,79.2L50.7,79.2L50.7,80.5L51.9,80.5L51.9,81.8L53.2,81.8L53.2,84.4L51.9,84.4L51.9,83.1L50.7,83.1L50.7,84.4L48.1,84.4L48.1,83.1L49.4,83.1L49.4,81.8L50.6,81.8L50.6,80.5L49.4,80.5ZM55.8,83.1L54.5,83.1L54.5,84.4L55.8,84.4L55.8,83.1ZM70.1,84.4L68.8,84.4L68.8,83.1L67.5,83.1L67.5,84.4L66.2,84.4L66.2,83.1L67.5,83.1L67.5,81.8L70.1,81.8L70.1,84.4ZM58.4,83.1L57.1,83.1L57.1,84.4L58.4,84.4L58.4,83.1ZM9.1,84.4L7.8,84.4L7.8,83.1L9.1,83.1L9.1,81.8L6.5,81.8L6.5,80.5L5.2,80.5L5.2,77.9L6.5,77.9L6.5,79.2L7.8,79.2L7.8,80.5L10.4,80.5L10.4,79.2L13,79.2L13,77.9L16.9,77.9L16.9,79.2L15.6,79.2L15.6,80.5L16.9,80.5L16.9,81.8L15.6,81.8L15.6,83.1L16.9,83.1L16.9,84.4L15.6,84.4L15.6,83.1L14.3,83.1L14.3,84.4L13,84.4L13,83.1L11.7,83.1L11.7,84.4L10.4,84.4L10.4,83.1L9.1,83.1L9.1,84.4ZM100,81.8L100,83.1L98.7,83.1L98.7,84.4L97.4,84.4L97.4,81.8L100,81.8ZM64.9,83.1L63.6,83.1L63.6,84.4L64.9,84.4L64.9,83.1ZM94.8,83.1L93.5,83.1L93.5,84.4L94.8,84.4L94.8,83.1ZM81.8,83.1L80.5,83.1L80.5,84.4L81.8,84.4L81.8,83.1ZM90.9,84.4L89.6,84.4L89.6,80.5L90.9,80.5L90.9,84.4ZM77.9,81.8L76.6,81.8L76.6,80.5L75.3,80.5L75.3,81.8L74,81.8L74,84.4L72.7,84.4L72.7,83.1L71.4,83.1L71.4,79.2L72.7,79.2L72.7,80.5L75.3,80.5L75.3,77.9L77.9,77.9L77.9,81.8ZM77.9,83.1L76.6,83.1L76.6,84.4L77.9,84.4L77.9,83.1ZM62.3,83.1L62.3,84.4L59.7,84.4L59.7,83.1L62.3,83.1ZM88.3,83.1L87,83.1L87,81.8L85.7,81.8L85.7,84.4L84.4,84.4L84.4,81.8L85.7,81.8L85.7,80.5L88.3,80.5L88.3,83.1ZM97.4,83.1L96.1,83.1L96.1,84.4L97.4,84.4L97.4,83.1ZM37.7,83.1L36.4,83.1L36.4,84.4L37.7,84.4L37.7,83.1ZM54.5,83.1L53.2,83.1L53.2,80.5L54.5,80.5L54.5,83.1ZM59.7,83.1L58.4,83.1L58.4,80.5L59.7,80.5L59.7,83.1ZM96.1,80.5L97.4,80.5L97.4,81.8L96.1,81.8L96.1,83.1L94.8,83.1L94.8,81.8L93.5,81.8L93.5,83.1L90.9,83.1L90.9,80.5L92.2,80.5L92.2,79.2L93.5,79.2L93.5,80.5L94.8,80.5L94.8,77.9L96.1,77.9L96.1,80.5ZM37.7,81.8L35.1,81.8L35.1,79.2L36.4,79.2L36.4,77.9L37.7,77.9L37.7,81.8ZM13,79.2L13,80.5L11.7,80.5L11.7,81.8L15.6,81.8L15.6,80.5L14.3,80.5L14.3,79.2L13,79.2ZM63.6,81.8L61,81.8L61,80.5L62.3,80.5L62.3,77.9L63.6,77.9L63.6,81.8ZM84.4,80.5L83.1,80.5L83.1,81.8L84.4,81.8L84.4,80.5ZM80.5,81.8L77.9,81.8L77.9,80.5L79.2,80.5L79.2,79.2L77.9,79.2L77.9,77.9L80.5,77.9L80.5,81.8ZM48.1,80.5L46.8,80.5L46.8,81.8L48.1,81.8L48.1,80.5ZM64.9,80.5L63.6,80.5L63.6,81.8L64.9,81.8L64.9,80.5ZM26,80.5L24.7,80.5L24.7,81.8L26,81.8L26,80.5ZM32.5,79.2L33.8,79.2L33.8,80.5L35.1,80.5L35.1,81.8L32.5,81.8L32.5,79.2ZM44.2,77.9L45.5,77.9L45.5,79.2L46.8,79.2L46.8,80.5L45.5,80.5L45.5,81.8L44.2,81.8L44.2,77.9ZM71.4,80.5L67.5,80.5L67.5,79.2L68.8,79.2L68.8,77.9L71.4,77.9L71.4,80.5ZM83.1,79.2L81.8,79.2L81.8,80.5L83.1,80.5L83.1,79.2ZM100,80.5L97.4,80.5L97.4,77.9L100,77.9L100,80.5ZM29.9,80.5L28.6,80.5L28.6,77.9L29.9,77.9L29.9,80.5ZM19.5,79.2L18.2,79.2L18.2,80.5L19.5,80.5L19.5,79.2ZM89.6,79.2L88.3,79.2L88.3,80.5L89.6,80.5L89.6,79.2ZM57.1,80.5L55.8,80.5L55.8,77.9L57.1,77.9L57.1,80.5ZM88.3,77.9L88.3,79.2L85.7,79.2L85.7,80.5L84.4,80.5L84.4,77.9L88.3,77.9ZM61,79.2L59.7,79.2L59.7,80.5L61,80.5L61,79.2ZM20.8,77.9L19.5,77.9L19.5,79.2L20.8,79.2L20.8,77.9ZM44.2,77.9L44.2,79.2L41.6,79.2L41.6,77.9L44.2,77.9ZM90.9,77.9L89.6,77.9L89.6,79.2L90.9,79.2L90.9,77.9ZM23.4,77.9L22.1,77.9L22.1,79.2L23.4,79.2L23.4,77.9ZM59.7,77.9L59.7,79.2L57.1,79.2L57.1,77.9L59.7,77.9ZM64.9,77.9L63.6,77.9L63.6,79.2L64.9,79.2L64.9,77.9ZM48.1,77.9L46.8,77.9L46.8,79.2L48.1,79.2L48.1,77.9ZM10.4,77.9L10.4,79.2L7.8,79.2L7.8,77.9L10.4,77.9ZM54.5,77.9L53.2,77.9L53.2,79.2L54.5,79.2L54.5,77.9ZM3.9,77.9L2.6,77.9L2.6,79.2L3.9,79.2L3.9,77.9ZM92.2,77.9L90.9,77.9L90.9,79.2L92.2,79.2L92.2,77.9ZM67.5,77.9L66.2,77.9L66.2,79.2L67.5,79.2L67.5,77.9ZM39,77.9L37.7,77.9L37.7,79.2L39,79.2L39,77.9ZM90.9,76.6L90.9,77.9L88.3,77.9L88.3,76.6L90.9,76.6ZM40.3,77.9L39,77.9L39,75.3L40.3,75.3L40.3,77.9ZM72.7,76.6L71.4,76.6L71.4,77.9L72.7,77.9L72.7,76.6ZM6.5,77.9L2.6,77.9L2.6,76.6L1.3,76.6L1.3,77.9L0,77.9L0,74L2.6,74L2.6,72.7L1.3,72.7L1.3,71.4L6.5,71.4L6.5,72.7L5.2,72.7L5.2,74L3.9,74L3.9,75.3L6.5,75.3L6.5,77.9ZM48.1,76.6L48.1,77.9L45.5,77.9L45.5,76.6L48.1,76.6ZM44.2,77.9L42.9,77.9L42.9,75.3L44.2,75.3L44.2,77.9ZM27.3,71.4L27.3,72.7L26,72.7L26,74L27.3,74L27.3,75.3L28.6,75.3L28.6,77.9L27.3,77.9L27.3,76.6L26,76.6L26,77.9L24.7,77.9L24.7,76.6L22.1,76.6L22.1,77.9L20.8,77.9L20.8,74L19.5,74L19.5,72.7L18.2,72.7L18.2,74L19.5,74L19.5,76.6L18.2,76.6L18.2,75.3L16.9,75.3L16.9,72.7L18.2,72.7L18.2,71.4L27.3,71.4ZM53.2,76.6L53.2,77.9L49.4,77.9L49.4,76.6L53.2,76.6ZM64.9,77.9L63.6,77.9L63.6,75.3L64.9,75.3L64.9,77.9ZM59.7,72.7L61,72.7L61,74L62.3,74L62.3,75.3L63.6,75.3L63.6,77.9L62.3,77.9L62.3,76.6L61,76.6L61,77.9L59.7,77.9L59.7,72.7ZM55.8,71.4L55.8,72.7L54.5,72.7L54.5,74L55.8,74L55.8,77.9L54.5,77.9L54.5,76.6L53.2,76.6L53.2,71.4L55.8,71.4ZM94.8,76.6L93.5,76.6L93.5,77.9L94.8,77.9L94.8,76.6ZM11.7,76.6L10.4,76.6L10.4,77.9L11.7,77.9L11.7,76.6ZM83.1,76.6L81.8,76.6L81.8,77.9L83.1,77.9L83.1,76.6ZM70.1,76.6L68.8,76.6L68.8,77.9L70.1,77.9L70.1,76.6ZM45.5,75.3L44.2,75.3L44.2,76.6L45.5,76.6L45.5,75.3ZM59.7,75.3L58.4,75.3L58.4,76.6L59.7,76.6L59.7,75.3ZM93.5,75.3L92.2,75.3L92.2,76.6L93.5,76.6L93.5,75.3ZM98.7,75.3L97.4,75.3L97.4,76.6L98.7,76.6L98.7,75.3ZM83.1,75.3L81.8,75.3L81.8,76.6L77.9,76.6L77.9,75.3L80.5,75.3L80.5,74L81.8,74L81.8,72.7L83.1,72.7L83.1,75.3ZM88.3,72.7L89.6,72.7L89.6,71.4L90.9,71.4L90.9,74L89.6,74L89.6,75.3L88.3,75.3L88.3,76.6L84.4,76.6L84.4,75.3L85.7,75.3L85.7,74L87,74L87,72.7L85.7,72.7L85.7,71.4L88.3,71.4L88.3,72.7ZM75.3,74L75.3,72.7L76.6,72.7L76.6,74L77.9,74L77.9,76.6L72.7,76.6L72.7,74L75.3,74ZM32.5,75.3L31.2,75.3L31.2,76.6L32.5,76.6L32.5,75.3ZM71.4,76.6L70.1,76.6L70.1,74L71.4,74L71.4,76.6ZM37.7,76.6L35.1,76.6L35.1,75.3L36.4,75.3L36.4,74L37.7,74L37.7,76.6ZM11.7,72.7L14.3,72.7L14.3,74L15.6,74L15.6,75.3L16.9,75.3L16.9,76.6L13,76.6L13,75.3L11.7,75.3L11.7,74L10.4,74L10.4,76.6L7.8,76.6L7.8,75.3L9.1,75.3L9.1,74L10.4,74L10.4,71.4L11.7,71.4L11.7,72.7ZM51.9,71.4L51.9,72.7L53.2,72.7L53.2,74L51.9,74L51.9,75.3L49.4,75.3L49.4,76.6L48.1,76.6L48.1,74L49.4,74L49.4,71.4L51.9,71.4ZM64.9,72.7L64.9,71.4L66.2,71.4L66.2,72.7L67.5,72.7L67.5,75.3L68.8,75.3L68.8,76.6L66.2,76.6L66.2,74L63.6,74L63.6,72.7L64.9,72.7ZM35.1,74L33.8,74L33.8,75.3L35.1,75.3L35.1,74ZM9.1,72.7L9.1,74L7.8,74L7.8,75.3L6.5,75.3L6.5,72.7L9.1,72.7ZM96.1,74L96.1,75.3L93.5,75.3L93.5,74L96.1,74ZM100,75.3L98.7,75.3L98.7,71.4L100,71.4L100,75.3ZM48.1,74L46.8,74L46.8,75.3L48.1,75.3L48.1,74ZM41.6,75.3L40.3,75.3L40.3,74L39,74L39,72.7L41.6,72.7L41.6,75.3ZM22.1,72.7L22.1,75.3L23.4,75.3L23.4,72.7L22.1,72.7ZM57.1,72.7L55.8,72.7L55.8,74L57.1,74L57.1,72.7ZM92.2,72.7L90.9,72.7L90.9,74L92.2,74L92.2,72.7ZM44.2,72.7L44.2,74L41.6,74L41.6,72.7L44.2,72.7ZM31.2,72.7L31.2,74L27.3,74L27.3,72.7L31.2,72.7ZM45.5,74L44.2,74L44.2,71.4L45.5,71.4L45.5,74ZM81.8,71.4L81.8,72.7L80.5,72.7L80.5,74L77.9,74L77.9,71.4L81.8,71.4ZM59.7,74L57.1,74L57.1,71.4L59.7,71.4L59.7,74ZM72.7,72.7L71.4,72.7L71.4,74L72.7,74L72.7,72.7ZM62.3,71.4L61,71.4L61,72.7L62.3,72.7L62.3,71.4ZM32.5,71.4L31.2,71.4L31.2,72.7L32.5,72.7L32.5,71.4ZM37.7,71.4L36.4,71.4L36.4,72.7L37.7,72.7L37.7,71.4ZM84.4,71.4L83.1,71.4L83.1,72.7L84.4,72.7L84.4,71.4ZM35.1,71.4L33.8,71.4L33.8,72.7L35.1,72.7L35.1,71.4ZM94.8,71.4L93.5,71.4L93.5,72.7L94.8,72.7L94.8,71.4ZM75.3,71.4L74,71.4L74,72.7L75.3,72.7L75.3,71.4ZM97.4,71.4L96.1,71.4L96.1,72.7L97.4,72.7L97.4,71.4ZM57.1,70.1L55.8,70.1L55.8,71.4L57.1,71.4L57.1,70.1ZM54.5,70.1L53.2,70.1L53.2,71.4L54.5,71.4L54.5,70.1ZM48.1,67.5L49.4,67.5L49.4,68.8L50.7,68.8L50.7,71.4L48.1,71.4L48.1,67.5ZM46.8,71.4L45.5,71.4L45.5,70.1L44.2,70.1L44.2,68.8L46.8,68.8L46.8,71.4ZM41.6,71.4L39,71.4L39,70.1L40.3,70.1L40.3,68.8L41.6,68.8L41.6,71.4ZM18.2,63.6L18.2,64.9L20.8,64.9L20.8,66.2L19.5,66.2L19.5,68.8L20.8,68.8L20.8,67.5L22.1,67.5L22.1,63.6L24.7,63.6L24.7,64.9L23.4,64.9L23.4,66.2L24.7,66.2L24.7,64.9L28.6,64.9L28.6,63.6L32.5,63.6L32.5,64.9L35.1,64.9L35.1,71.4L33.8,71.4L33.8,67.5L32.5,67.5L32.5,66.2L28.6,66.2L28.6,67.5L31.2,67.5L31.2,68.8L27.3,68.8L27.3,71.4L23.4,71.4L23.4,70.1L22.1,70.1L22.1,71.4L18.2,71.4L18.2,70.1L16.9,70.1L16.9,71.4L14.3,71.4L14.3,70.1L16.9,70.1L16.9,67.5L15.6,67.5L15.6,66.2L16.9,66.2L16.9,64.9L15.6,64.9L15.6,63.6L18.2,63.6ZM85.7,70.1L84.4,70.1L84.4,71.4L85.7,71.4L85.7,70.1ZM83.1,71.4L81.8,71.4L81.8,68.8L83.1,68.8L83.1,71.4ZM93.5,70.1L92.2,70.1L92.2,71.4L93.5,71.4L93.5,70.1ZM67.5,70.1L66.2,70.1L66.2,71.4L67.5,71.4L67.5,70.1ZM63.6,70.1L62.3,70.1L62.3,71.4L63.6,71.4L63.6,70.1ZM71.4,68.8L72.7,68.8L72.7,70.1L74,70.1L74,71.4L71.4,71.4L71.4,68.8ZM70.1,70.1L68.8,70.1L68.8,71.4L70.1,71.4L70.1,70.1ZM98.7,71.4L97.4,71.4L97.4,67.5L98.7,67.5L98.7,71.4ZM44.2,71.4L42.9,71.4L42.9,70.1L41.6,70.1L41.6,68.8L44.2,68.8L44.2,71.4ZM9.1,70.1L9.1,71.4L6.5,71.4L6.5,70.1L9.1,70.1ZM67.5,64.9L68.8,64.9L68.8,63.6L71.4,63.6L71.4,67.5L70.1,67.5L70.1,66.2L68.8,66.2L68.8,67.5L70.1,67.5L70.1,68.8L68.8,68.8L68.8,70.1L67.5,70.1L67.5,66.2L66.2,66.2L66.2,68.8L64.9,68.8L64.9,71.4L63.6,71.4L63.6,67.5L64.9,67.5L64.9,66.2L63.6,66.2L63.6,64.9L64.9,64.9L64.9,63.6L67.5,63.6L67.5,64.9ZM77.9,71.4L75.3,71.4L75.3,68.8L77.9,68.8L77.9,71.4ZM53.2,70.1L51.9,70.1L51.9,71.4L53.2,71.4L53.2,70.1ZM29.9,70.1L28.6,70.1L28.6,71.4L29.9,71.4L29.9,70.1ZM87,63.6L87,64.9L88.3,64.9L88.3,63.6L89.6,63.6L89.6,64.9L90.9,64.9L90.9,68.8L88.3,68.8L88.3,70.1L87,70.1L87,67.5L88.3,67.5L88.3,66.2L84.4,66.2L84.4,63.6L87,63.6ZM59.7,63.6L61,63.6L61,64.9L63.6,64.9L63.6,66.2L61,66.2L61,67.5L63.6,67.5L63.6,68.8L62.3,68.8L62.3,70.1L61,70.1L61,68.8L59.7,68.8L59.7,63.6ZM55.8,68.8L54.5,68.8L54.5,70.1L55.8,70.1L55.8,68.8ZM37.7,66.2L39,66.2L39,67.5L40.3,67.5L40.3,68.8L39,68.8L39,70.1L37.7,70.1L37.7,66.2ZM59.7,68.8L58.4,68.8L58.4,70.1L59.7,70.1L59.7,68.8ZM80.5,70.1L79.2,70.1L79.2,67.5L80.5,67.5L80.5,70.1ZM94.8,66.2L97.4,66.2L97.4,68.8L94.8,68.8L94.8,70.1L93.5,70.1L93.5,68.8L90.9,68.8L90.9,67.5L93.5,67.5L93.5,66.2L90.9,66.2L90.9,64.9L93.5,64.9L93.5,63.6L94.8,63.6L94.8,66.2ZM6.5,63.6L6.5,64.9L10.4,64.9L10.4,63.6L11.7,63.6L11.7,66.2L13,66.2L13,64.9L14.3,64.9L14.3,70.1L13,70.1L13,68.8L11.7,68.8L11.7,70.1L10.4,70.1L10.4,68.8L11.7,68.8L11.7,66.2L10.4,66.2L10.4,68.8L5.2,68.8L5.2,70.1L2.6,70.1L2.6,67.5L3.9,67.5L3.9,63.6L6.5,63.6ZM71.4,68.8L70.1,68.8L70.1,70.1L71.4,70.1L71.4,68.8ZM32.5,68.8L31.2,68.8L31.2,70.1L32.5,70.1L32.5,68.8ZM24.7,68.8L24.7,70.1L26,70.1L26,68.8L24.7,68.8ZM53.2,67.5L51.9,67.5L51.9,68.8L53.2,68.8L53.2,67.5ZM84.4,67.5L83.1,67.5L83.1,68.8L84.4,68.8L84.4,67.5ZM22.1,67.5L22.1,68.8L23.4,68.8L23.4,67.5L22.1,67.5ZM57.1,68.8L55.8,68.8L55.8,66.2L53.2,66.2L53.2,64.9L57.1,64.9L57.1,68.8ZM75.3,67.5L74,67.5L74,68.8L75.3,68.8L75.3,67.5ZM1.3,67.5L0,67.5L0,68.8L1.3,68.8L1.3,67.5ZM58.4,67.5L57.1,67.5L57.1,68.8L58.4,68.8L58.4,67.5ZM85.7,67.5L84.4,67.5L84.4,68.8L85.7,68.8L85.7,67.5ZM72.7,66.2L71.4,66.2L71.4,67.5L72.7,67.5L72.7,66.2ZM50.7,66.2L51.9,66.2L51.9,67.5L49.4,67.5L49.4,66.2L48.1,66.2L48.1,63.6L50.7,63.6L50.7,66.2ZM7.8,66.2L7.8,67.5L9.1,67.5L9.1,66.2L7.8,66.2ZM100,67.5L98.7,67.5L98.7,64.9L100,64.9L100,67.5ZM83.1,67.5L81.8,67.5L81.8,64.9L80.5,64.9L80.5,63.6L83.1,63.6L83.1,67.5ZM46.8,67.5L44.2,67.5L44.2,64.9L45.5,64.9L45.5,63.6L46.8,63.6L46.8,67.5ZM26,66.2L26,67.5L27.3,67.5L27.3,66.2L26,66.2ZM77.9,66.2L76.6,66.2L76.6,67.5L77.9,67.5L77.9,66.2ZM77.9,63.6L79.2,63.6L79.2,64.9L80.5,64.9L80.5,66.2L77.9,66.2L77.9,63.6ZM2.6,66.2L0,66.2L0,64.9L1.3,64.9L1.3,63.6L2.6,63.6L2.6,66.2ZM76.6,66.2L74,66.2L74,64.9L75.3,64.9L75.3,63.6L76.6,63.6L76.6,66.2ZM44.2,64.9L42.9,64.9L42.9,66.2L44.2,66.2L44.2,64.9ZM41.6,66.2L39,66.2L39,63.6L41.6,63.6L41.6,66.2ZM37.7,66.2L35.1,66.2L35.1,64.9L36.4,64.9L36.4,63.6L37.7,63.6L37.7,66.2ZM53.2,63.6L51.9,63.6L51.9,64.9L53.2,64.9L53.2,63.6ZM42.9,63.6L41.6,63.6L41.6,64.9L42.9,64.9L42.9,63.6ZM97.4,63.6L96.1,63.6L96.1,64.9L97.4,64.9L97.4,63.6ZM51.9,59.7L51.9,61L50.7,61L50.7,62.3L49.4,62.3L49.4,63.6L48.1,63.6L48.1,59.7L51.9,59.7ZM9.1,62.3L7.8,62.3L7.8,63.6L9.1,63.6L9.1,62.3ZM66.2,59.7L66.2,61L68.8,61L68.8,63.6L67.5,63.6L67.5,62.3L66.2,62.3L66.2,63.6L64.9,63.6L64.9,61L63.6,61L63.6,59.7L66.2,59.7ZM15.6,63.6L13,63.6L13,62.3L14.3,62.3L14.3,61L13,61L13,59.7L15.6,59.7L15.6,63.6ZM71.4,62.3L70.1,62.3L70.1,63.6L71.4,63.6L71.4,62.3ZM63.6,62.3L62.3,62.3L62.3,63.6L63.6,63.6L63.6,62.3ZM98.7,63.6L97.4,63.6L97.4,61L98.7,61L98.7,63.6ZM57.1,59.7L57.1,61L55.8,61L55.8,62.3L57.1,62.3L57.1,63.6L54.5,63.6L54.5,62.3L53.2,62.3L53.2,59.7L57.1,59.7ZM3.9,62.3L5.2,62.3L5.2,59.7L11.7,59.7L11.7,63.6L10.4,63.6L10.4,61L6.5,61L6.5,63.6L2.6,63.6L2.6,62.3L1.3,62.3L1.3,63.6L0,63.6L0,62.3L1.3,62.3L1.3,61L2.6,61L2.6,59.7L3.9,59.7L3.9,62.3ZM35.1,62.3L33.8,62.3L33.8,63.6L35.1,63.6L35.1,62.3ZM41.6,59.7L42.9,59.7L42.9,61L44.2,61L44.2,62.3L42.9,62.3L42.9,63.6L41.6,63.6L41.6,59.7ZM63.6,59.7L63.6,61L61,61L61,63.6L59.7,63.6L59.7,59.7L63.6,59.7ZM77.9,62.3L76.6,62.3L76.6,63.6L77.9,63.6L77.9,62.3ZM41.6,63.6L40.3,63.6L40.3,61L41.6,61L41.6,63.6ZM35.1,59.7L35.1,61L32.5,61L32.5,63.6L28.6,63.6L28.6,62.3L29.9,62.3L29.9,59.7L35.1,59.7ZM75.3,63.6L71.4,63.6L71.4,62.3L74,62.3L74,61L75.3,61L75.3,63.6ZM92.2,62.3L90.9,62.3L90.9,63.6L92.2,63.6L92.2,62.3ZM90.9,59.7L90.9,61L89.6,61L89.6,63.6L85.7,63.6L85.7,62.3L84.4,62.3L84.4,61L88.3,61L88.3,59.7L90.9,59.7ZM97.4,62.3L96.1,62.3L96.1,63.6L97.4,63.6L97.4,62.3ZM58.4,62.3L59.7,62.3L59.7,63.6L57.1,63.6L57.1,59.7L58.4,59.7L58.4,62.3ZM28.6,61L28.6,62.3L27.3,62.3L27.3,63.6L23.4,63.6L23.4,62.3L26,62.3L26,61L28.6,61ZM20.8,62.3L22.1,62.3L22.1,63.6L18.2,63.6L18.2,62.3L19.5,62.3L19.5,59.7L20.8,59.7L20.8,62.3ZM94.8,61L96.1,61L96.1,62.3L94.8,62.3L94.8,63.6L93.5,63.6L93.5,61L90.9,61L90.9,59.7L94.8,59.7L94.8,61ZM37.7,63.6L36.4,63.6L36.4,61L35.1,61L35.1,59.7L37.7,59.7L37.7,63.6ZM48.1,62.3L46.8,62.3L46.8,61L45.5,61L45.5,63.6L44.2,63.6L44.2,59.7L48.1,59.7L48.1,62.3ZM18.2,62.3L16.9,62.3L16.9,59.7L18.2,59.7L18.2,62.3ZM84.4,59.7L84.4,61L83.1,61L83.1,62.3L80.5,62.3L80.5,61L77.9,61L77.9,59.7L84.4,59.7ZM77.9,59.7L77.9,61L75.3,61L75.3,59.7L77.9,59.7ZM71.4,59.7L71.4,61L68.8,61L68.8,59.7L71.4,59.7ZM97.4,59.7L96.1,59.7L96.1,61L97.4,61L97.4,59.7ZM72.7,59.7L71.4,59.7L71.4,61L72.7,61L72.7,59.7ZM24.7,59.7L23.4,59.7L23.4,61L24.7,61L24.7,59.7ZM40.3,59.7L40.3,61L37.7,61L37.7,59.7L40.3,59.7ZM35.1,58.4L33.8,58.4L33.8,59.7L35.1,59.7L35.1,58.4ZM58.4,58.4L57.1,58.4L57.1,59.7L58.4,59.7L58.4,58.4ZM57.1,59.7L55.8,59.7L55.8,57.1L57.1,57.1L57.1,59.7ZM66.2,58.4L64.9,58.4L64.9,59.7L66.2,59.7L66.2,58.4ZM63.6,59.7L61,59.7L61,58.4L59.7,58.4L59.7,57.1L63.6,57.1L63.6,59.7ZM15.6,58.4L14.3,58.4L14.3,59.7L15.6,59.7L15.6,58.4ZM10.4,57.1L11.7,57.1L11.7,58.4L13,58.4L13,59.7L9.1,59.7L9.1,58.4L10.4,58.4L10.4,57.1ZM97.4,59.7L96.1,59.7L96.1,58.4L94.8,58.4L94.8,59.7L90.9,59.7L90.9,58.4L93.5,58.4L93.5,57.1L97.4,57.1L97.4,59.7ZM76.6,57.1L76.6,58.4L75.3,58.4L75.3,59.7L74,59.7L74,58.4L72.7,58.4L72.7,59.7L71.4,59.7L71.4,58.4L72.7,58.4L72.7,57.1L76.6,57.1ZM100,58.4L98.7,58.4L98.7,59.7L100,59.7L100,58.4ZM85.7,58.4L84.4,58.4L84.4,59.7L85.7,59.7L85.7,58.4ZM71.4,58.4L70.1,58.4L70.1,59.7L71.4,59.7L71.4,58.4ZM77.9,58.4L76.6,58.4L76.6,59.7L77.9,59.7L77.9,58.4ZM50.7,58.4L51.9,58.4L51.9,59.7L48.1,59.7L48.1,57.1L50.7,57.1L50.7,58.4ZM28.6,58.4L27.3,58.4L27.3,59.7L28.6,59.7L28.6,58.4ZM90.9,59.7L87,59.7L87,58.4L88.3,58.4L88.3,57.1L90.9,57.1L90.9,59.7ZM84.4,59.7L83.1,59.7L83.1,58.4L81.8,58.4L81.8,59.7L80.5,59.7L80.5,57.1L84.4,57.1L84.4,59.7ZM44.2,58.4L42.9,58.4L42.9,59.7L44.2,59.7L44.2,58.4ZM48.1,59.7L46.8,59.7L46.8,58.4L44.2,58.4L44.2,57.1L48.1,57.1L48.1,59.7ZM41.6,58.4L40.3,58.4L40.3,59.7L41.6,59.7L41.6,58.4ZM53.2,57.1L51.9,57.1L51.9,58.4L53.2,58.4L53.2,57.1ZM37.7,57.1L37.7,58.4L35.1,58.4L35.1,57.1L37.7,57.1ZM87,57.1L85.7,57.1L85.7,58.4L87,58.4L87,57.1ZM59.7,57.1L58.4,57.1L58.4,58.4L59.7,58.4L59.7,57.1ZM9.1,57.1L7.8,57.1L7.8,58.4L9.1,58.4L9.1,57.1ZM42.9,57.1L41.6,57.1L41.6,58.4L42.9,58.4L42.9,57.1ZM6.5,57.1L6.5,58.4L3.9,58.4L3.9,57.1L6.5,57.1ZM23.4,57.1L22.1,57.1L22.1,58.4L23.4,58.4L23.4,57.1ZM70.1,57.1L68.8,57.1L68.8,58.4L70.1,58.4L70.1,57.1ZM32.5,57.1L32.5,58.4L29.9,58.4L29.9,57.1L32.5,57.1ZM26,57.1L24.7,57.1L24.7,58.4L26,58.4L26,57.1ZM18.2,57.1L16.9,57.1L16.9,58.4L18.2,58.4L18.2,57.1ZM14.3,57.1L13,57.1L13,58.4L14.3,58.4L14.3,57.1ZM1.3,57.1L0,57.1L0,58.4L1.3,58.4L1.3,57.1ZM39,57.1L37.7,57.1L37.7,58.4L39,58.4L39,57.1ZM20.8,57.1L19.5,57.1L19.5,58.4L20.8,58.4L20.8,57.1ZM57.1,54.5L58.4,54.5L58.4,55.8L59.7,55.8L59.7,57.1L57.1,57.1L57.1,54.5ZM57.1,57.1L54.5,57.1L54.5,55.8L55.8,55.8L55.8,54.5L57.1,54.5L57.1,57.1ZM74,55.8L72.7,55.8L72.7,57.1L74,57.1L74,55.8ZM28.6,55.8L28.6,57.1L23.4,57.1L23.4,55.8L28.6,55.8ZM2.6,53.2L2.6,54.5L3.9,54.5L3.9,57.1L2.6,57.1L2.6,55.8L0,55.8L0,53.2L2.6,53.2ZM20.8,57.1L19.5,57.1L19.5,53.2L20.8,53.2L20.8,57.1ZM32.5,54.5L32.5,55.8L31.2,55.8L31.2,57.1L29.9,57.1L29.9,54.5L32.5,54.5ZM48.1,53.2L48.1,54.5L46.8,54.5L46.8,55.8L45.5,55.8L45.5,57.1L44.2,57.1L44.2,53.2L48.1,53.2ZM77.9,55.8L76.6,55.8L76.6,57.1L77.9,57.1L77.9,55.8ZM93.5,55.8L93.5,57.1L90.9,57.1L90.9,55.8L93.5,55.8ZM35.1,54.5L36.4,54.5L36.4,55.8L37.7,55.8L37.7,57.1L35.1,57.1L35.1,54.5ZM53.2,55.8L51.9,55.8L51.9,57.1L50.6,57.1L50.6,55.8L49.4,55.8L49.4,57.1L48.1,57.1L48.1,55.8L49.4,55.8L49.4,54.5L50.6,54.5L50.6,53.2L53.2,53.2L53.2,55.8ZM100,54.5L100,55.8L98.7,55.8L98.7,57.1L97.4,57.1L97.4,54.5L100,54.5ZM67.5,53.2L68.8,53.2L68.8,54.5L71.4,54.5L71.4,55.8L70.1,55.8L70.1,57.1L64.9,57.1L64.9,55.8L67.5,55.8L67.5,53.2ZM85.7,55.8L84.4,55.8L84.4,57.1L85.7,57.1L85.7,55.8ZM10.4,54.5L10.4,55.8L7.8,55.8L7.8,57.1L5.2,57.1L5.2,55.8L6.5,55.8L6.5,54.5L10.4,54.5ZM63.6,53.2L63.6,54.5L62.3,54.5L62.3,55.8L63.6,55.8L63.6,57.1L61,57.1L61,53.2L63.6,53.2ZM18.2,55.8L18.2,57.1L13,57.1L13,55.8L18.2,55.8ZM84.4,55.8L83.1,55.8L83.1,57.1L84.4,57.1L84.4,55.8ZM44.2,55.8L41.6,55.8L41.6,54.5L42.9,54.5L42.9,53.2L44.2,53.2L44.2,55.8ZM89.6,55.8L87,55.8L87,54.5L84.4,54.5L84.4,53.2L89.6,53.2L89.6,55.8ZM35.1,54.5L33.8,54.5L33.8,55.8L35.1,55.8L35.1,54.5ZM80.5,55.8L77.9,55.8L77.9,54.5L79.2,54.5L79.2,53.2L80.5,53.2L80.5,55.8ZM64.9,54.5L63.6,54.5L63.6,55.8L64.9,55.8L64.9,54.5ZM96.1,54.5L96.1,55.8L93.5,55.8L93.5,54.5L96.1,54.5ZM75.3,53.2L75.3,54.5L76.6,54.5L76.6,55.8L74,55.8L74,54.5L72.7,54.5L72.7,55.8L71.4,55.8L71.4,53.2L75.3,53.2ZM41.6,55.8L37.7,55.8L37.7,54.5L40.3,54.5L40.3,53.2L41.6,53.2L41.6,55.8ZM37.7,53.2L36.4,53.2L36.4,54.5L37.7,54.5L37.7,53.2ZM11.7,53.2L10.4,53.2L10.4,54.5L11.7,54.5L11.7,53.2ZM55.8,53.2L55.8,54.5L53.2,54.5L53.2,53.2L55.8,53.2ZM77.9,53.2L76.6,53.2L76.6,54.5L77.9,54.5L77.9,53.2ZM84.4,53.2L83.1,53.2L83.1,54.5L84.4,54.5L84.4,53.2ZM6.5,53.2L5.2,53.2L5.2,54.5L6.5,54.5L6.5,53.2ZM26,53.2L26,54.5L23.4,54.5L23.4,53.2L26,53.2ZM35.1,48.1L36.4,48.1L36.4,49.4L37.7,49.4L37.7,50.7L36.4,50.7L36.4,51.9L37.7,51.9L37.7,53.2L35.1,53.2L35.1,48.1ZM1.3,53.2L0,53.2L0,50.6L1.3,50.6L1.3,53.2ZM11.7,51.9L11.7,53.2L7.8,53.2L7.8,51.9L11.7,51.9ZM27.3,48.1L28.6,48.1L28.6,49.4L29.9,49.4L29.9,48.1L32.5,48.1L32.5,49.4L31.2,49.4L31.2,50.6L32.5,50.6L32.5,49.4L33.8,49.4L33.8,50.6L35.1,50.6L35.1,53.2L33.8,53.2L33.8,51.9L32.5,51.9L32.5,53.2L29.9,53.2L29.9,50.7L27.3,50.7L27.3,48.1ZM3.9,49.4L3.9,48.1L5.2,48.1L5.2,49.4L3.9,49.4L3.9,53.2L2.6,53.2L2.6,49.4L3.9,49.4ZM26,51.9L24.7,51.9L24.7,53.2L26,53.2L26,51.9ZM67.5,51.9L66.2,51.9L66.2,53.2L67.5,53.2L67.5,51.9ZM59.7,53.2L58.4,53.2L58.4,51.9L57.1,51.9L57.1,50.6L59.7,50.6L59.7,53.2ZM28.6,51.9L27.3,51.9L27.3,53.2L28.6,53.2L28.6,51.9ZM41.6,53.2L39,53.2L39,51.9L37.7,51.9L37.7,49.4L41.6,49.4L41.6,53.2ZM74,51.9L72.7,51.9L72.7,53.2L74,53.2L74,51.9ZM44.2,53.2L41.6,53.2L41.6,51.9L42.9,51.9L42.9,50.6L44.2,50.6L44.2,53.2ZM57.1,50.7L54.5,50.7L54.5,51.9L57.1,51.9L57.1,53.2L53.2,53.2L53.2,49.4L55.8,49.4L55.8,48.1L57.1,48.1L57.1,50.7ZM53.2,51.9L51.9,51.9L51.9,50.7L50.7,50.7L50.7,51.9L51.9,51.9L51.9,53.2L49.4,53.2L49.4,51.9L48.1,51.9L48.1,49.4L51.9,49.4L51.9,48.1L53.2,48.1L53.2,51.9ZM85.7,51.9L87,51.9L87,53.2L84.4,53.2L84.4,49.4L85.7,49.4L85.7,51.9ZM19.5,51.9L18.2,51.9L18.2,53.2L19.5,53.2L19.5,51.9ZM62.3,51.9L62.3,53.2L59.7,53.2L59.7,51.9L62.3,51.9ZM83.1,51.9L83.1,53.2L80.5,53.2L80.5,51.9L83.1,51.9ZM90.9,51.9L90.9,53.2L88.3,53.2L88.3,51.9L90.9,51.9ZM71.4,51.9L70.1,51.9L70.1,53.2L71.4,53.2L71.4,51.9ZM23.4,51.9L22.1,51.9L22.1,53.2L23.4,53.2L23.4,51.9ZM96.1,51.9L94.8,51.9L94.8,53.2L96.1,53.2L96.1,51.9ZM15.6,51.9L14.3,51.9L14.3,53.2L15.6,53.2L15.6,51.9ZM46.8,49.4L48.1,49.4L48.1,50.7L46.8,50.7L46.8,51.9L48.1,51.9L48.1,53.2L45.5,53.2L45.5,51.9L44.2,51.9L44.2,50.6L46.8,50.6L46.8,49.4ZM61,48.1L62.3,48.1L62.3,49.4L63.6,49.4L63.6,51.9L62.3,51.9L62.3,50.7L61,50.7L61,48.1ZM75.3,50.6L76.6,50.6L76.6,48.1L77.9,48.1L77.9,51.9L75.3,51.9L75.3,50.7L74,50.7L74,48.1L75.3,48.1L75.3,50.6ZM94.8,49.4L94.8,48.1L96.1,48.1L96.1,49.4L97.4,49.4L97.4,50.7L94.8,50.7L94.8,51.9L92.2,51.9L92.2,50.7L90.9,50.7L90.9,49.4L94.8,49.4ZM20.8,49.4L22.1,49.4L22.1,48.1L26,48.1L26,50.7L23.4,50.7L23.4,49.4L22.1,49.4L22.1,51.9L19.5,51.9L19.5,50.7L18.2,50.7L18.2,49.4L16.9,49.4L16.9,48.1L20.8,48.1L20.8,49.4ZM64.9,49.4L66.2,49.4L66.2,50.7L64.9,50.7L64.9,51.9L63.6,51.9L63.6,50.6L64.9,50.6L64.9,49.4ZM71.4,50.7L70.1,50.7L70.1,51.9L68.8,51.9L68.8,50.7L67.5,50.7L67.5,49.4L70.1,49.4L70.1,48.1L71.4,48.1L71.4,50.7ZM80.5,49.4L80.5,50.7L79.2,50.7L79.2,51.9L77.9,51.9L77.9,49.4L80.5,49.4ZM100,49.4L100,50.7L98.7,50.7L98.7,51.9L97.4,51.9L97.4,49.4L100,49.4ZM90.9,48.1L90.9,49.4L89.6,49.4L89.6,50.7L87,50.7L87,48.1L90.9,48.1ZM13,50.7L7.8,50.7L7.8,49.4L11.7,49.4L11.7,48.1L13,48.1L13,50.7ZM72.7,50.7L71.4,50.7L71.4,48.1L72.7,48.1L72.7,50.7ZM84.4,49.4L84.4,50.7L81.8,50.7L81.8,49.4L84.4,49.4ZM15.6,50.7L14.3,50.7L14.3,48.1L15.6,48.1L15.6,50.7ZM1.3,48.1L0,48.1L0,49.4L1.3,49.4L1.3,48.1ZM81.8,48.1L80.5,48.1L80.5,49.4L81.8,49.4L81.8,48.1ZM64.9,48.1L63.6,48.1L63.6,49.4L64.9,49.4L64.9,48.1ZM7.8,48.1L6.5,48.1L6.5,49.4L7.8,49.4L7.8,48.1ZM45.5,48.1L44.2,48.1L44.2,49.4L45.5,49.4L45.5,48.1ZM59.7,48.1L58.4,48.1L58.4,49.4L59.7,49.4L59.7,48.1ZM67.5,48.1L66.2,48.1L66.2,49.4L67.5,49.4L67.5,48.1ZM42.9,48.1L41.6,48.1L41.6,49.4L42.9,49.4L42.9,48.1ZM77.9,48.1L75.3,48.1L75.3,46.8L76.6,46.8L76.6,45.5L74,45.5L74,44.2L77.9,44.2L77.9,48.1ZM27.3,44.2L28.6,44.2L28.6,45.5L31.2,45.5L31.2,44.2L32.5,44.2L32.5,46.8L33.8,46.8L33.8,48.1L29.9,48.1L29.9,46.8L28.6,46.8L28.6,48.1L27.3,48.1L27.3,44.2ZM9.1,46.8L7.8,46.8L7.8,48.1L9.1,48.1L9.1,46.8ZM18.2,46.8L18.2,48.1L15.6,48.1L15.6,46.8L18.2,46.8ZM10.4,44.2L10.4,45.5L7.8,45.5L7.8,46.8L6.5,46.8L6.5,45.5L2.6,45.5L2.6,48.1L0,48.1L0,46.8L1.3,46.8L1.3,44.2L10.4,44.2ZM57.1,44.2L57.1,45.5L55.8,45.5L55.8,48.1L54.5,48.1L54.5,46.8L53.2,46.8L53.2,45.5L54.5,45.5L54.5,44.2L57.1,44.2ZM51.9,44.2L51.9,45.5L50.7,45.5L50.7,46.8L53.2,46.8L53.2,48.1L49.4,48.1L49.4,46.8L48.1,46.8L48.1,44.2L51.9,44.2ZM59.7,46.8L58.4,46.8L58.4,48.1L59.7,48.1L59.7,46.8ZM84.4,46.8L83.1,46.8L83.1,48.1L84.4,48.1L84.4,46.8ZM36.4,48.1L35.1,48.1L35.1,45.5L36.4,45.5L36.4,48.1ZM22.1,48.1L19.5,48.1L19.5,46.8L20.8,46.8L20.8,44.2L22.1,44.2L22.1,48.1ZM100,46.8L98.7,46.8L98.7,48.1L100,48.1L100,46.8ZM96.1,45.5L97.4,45.5L97.4,46.8L96.1,46.8L96.1,48.1L94.8,48.1L94.8,46.8L93.5,46.8L93.5,48.1L92.2,48.1L92.2,46.8L93.5,46.8L93.5,44.2L96.1,44.2L96.1,45.5ZM89.6,46.8L88.3,46.8L88.3,48.1L89.6,48.1L89.6,46.8ZM85.7,46.8L84.4,46.8L84.4,48.1L85.7,48.1L85.7,46.8ZM41.6,44.2L41.6,45.5L40.3,45.5L40.3,46.8L41.6,46.8L41.6,48.1L39,48.1L39,46.8L37.7,46.8L37.7,44.2L41.6,44.2ZM80.5,46.8L79.2,46.8L79.2,48.1L80.5,48.1L80.5,46.8ZM62.3,46.8L62.3,48.1L59.7,48.1L59.7,46.8L62.3,46.8ZM67.5,45.5L70.1,45.5L70.1,48.1L68.8,48.1L68.8,46.8L66.2,46.8L66.2,48.1L64.9,48.1L64.9,46.8L63.6,46.8L63.6,45.5L64.9,45.5L64.9,44.2L67.5,44.2L67.5,45.5ZM5.2,46.8L3.9,46.8L3.9,48.1L5.2,48.1L5.2,46.8ZM14.3,46.8L13,46.8L13,48.1L14.3,48.1L14.3,46.8ZM42.9,46.8L41.6,46.8L41.6,48.1L42.9,48.1L42.9,46.8ZM26,46.8L24.7,46.8L24.7,44.2L26,44.2L26,46.8ZM35.1,46.8L33.8,46.8L33.8,44.2L35.1,44.2L35.1,46.8ZM92.2,46.8L90.9,46.8L90.9,44.2L92.2,44.2L92.2,46.8ZM80.5,44.2L80.5,45.5L79.2,45.5L79.2,46.8L77.9,46.8L77.9,44.2L80.5,44.2ZM98.7,45.5L97.4,45.5L97.4,46.8L98.7,46.8L98.7,45.5ZM84.4,44.2L84.4,45.5L83.1,45.5L83.1,46.8L80.5,46.8L80.5,45.5L81.8,45.5L81.8,44.2L84.4,44.2ZM48.1,46.8L45.5,46.8L45.5,45.5L44.2,45.5L44.2,44.2L48.1,44.2L48.1,46.8ZM72.7,45.5L71.4,45.5L71.4,46.8L72.7,46.8L72.7,45.5ZM63.6,46.8L62.3,46.8L62.3,45.5L59.7,45.5L59.7,44.2L63.6,44.2L63.6,46.8ZM58.4,45.5L57.1,45.5L57.1,46.8L58.4,46.8L58.4,45.5ZM90.9,44.2L90.9,45.5L87,45.5L87,44.2L90.9,44.2ZM85.7,44.2L84.4,44.2L84.4,45.5L85.7,45.5L85.7,44.2ZM100,44.2L98.7,44.2L98.7,45.5L100,45.5L100,44.2ZM16.9,44.2L15.6,44.2L15.6,45.5L16.9,45.5L16.9,44.2ZM37.7,44.2L36.4,44.2L36.4,45.5L37.7,45.5L37.7,44.2ZM14.3,44.2L13,44.2L13,45.5L14.3,45.5L14.3,44.2ZM19.5,44.2L18.2,44.2L18.2,45.5L19.5,45.5L19.5,44.2ZM36.4,44.2L35.1,44.2L35.1,41.6L36.4,41.6L36.4,44.2ZM10.4,41.6L10.4,42.9L11.7,42.9L11.7,41.6L13,41.6L13,44.2L9.1,44.2L9.1,42.9L7.8,42.9L7.8,44.2L6.5,44.2L6.5,42.9L7.8,42.9L7.8,41.6L10.4,41.6ZM35.1,44.2L32.5,44.2L32.5,42.9L33.8,42.9L33.8,41.6L35.1,41.6L35.1,44.2ZM28.6,41.6L28.6,42.9L27.3,42.9L27.3,44.2L26,44.2L26,42.9L24.7,42.9L24.7,41.6L28.6,41.6ZM58.4,42.9L57.1,42.9L57.1,44.2L58.4,44.2L58.4,42.9ZM42.9,44.2L41.6,44.2L41.6,41.6L42.9,41.6L42.9,44.2ZM23.4,41.6L23.4,42.9L22.1,42.9L22.1,44.2L19.5,44.2L19.5,42.9L20.8,42.9L20.8,41.6L23.4,41.6ZM67.5,42.9L67.5,44.2L64.9,44.2L64.9,42.9L67.5,42.9ZM48.1,41.6L48.1,42.9L46.8,42.9L46.8,44.2L45.5,44.2L45.5,42.9L44.2,42.9L44.2,41.6L48.1,41.6ZM77.9,44.2L75.3,44.2L75.3,42.9L76.6,42.9L76.6,41.6L77.9,41.6L77.9,44.2ZM90.9,42.9L89.6,42.9L89.6,44.2L90.9,44.2L90.9,42.9ZM3.9,44.2L0,44.2L0,42.9L1.3,42.9L1.3,41.6L3.9,41.6L3.9,44.2ZM70.1,42.9L68.8,42.9L68.8,44.2L70.1,44.2L70.1,42.9ZM39,42.9L40.3,42.9L40.3,44.2L37.7,44.2L37.7,41.6L39,41.6L39,42.9ZM84.4,41.6L84.4,42.9L83.1,42.9L83.1,44.2L80.5,44.2L80.5,42.9L79.2,42.9L79.2,44.2L77.9,44.2L77.9,42.9L79.2,42.9L79.2,41.6L84.4,41.6ZM89.6,41.6L89.6,42.9L88.3,42.9L88.3,44.2L85.7,44.2L85.7,42.9L87,42.9L87,41.6L89.6,41.6ZM57.1,44.2L55.8,44.2L55.8,42.9L54.5,42.9L54.5,41.6L57.1,41.6L57.1,44.2ZM93.5,41.6L93.5,42.9L90.9,42.9L90.9,41.6L93.5,41.6ZM64.9,41.6L63.6,41.6L63.6,42.9L64.9,42.9L64.9,41.6ZM71.4,41.6L70.1,41.6L70.1,42.9L71.4,42.9L71.4,41.6ZM61,41.6L59.7,41.6L59.7,42.9L61,42.9L61,41.6ZM75.3,41.6L74,41.6L74,42.9L75.3,42.9L75.3,41.6ZM100,41.6L98.7,41.6L98.7,42.9L100,42.9L100,41.6ZM41.6,41.6L40.3,41.6L40.3,42.9L41.6,42.9L41.6,41.6ZM18.2,41.6L18.2,42.9L15.6,42.9L15.6,41.6L18.2,41.6ZM53.2,41.6L53.2,42.9L49.4,42.9L49.4,41.6L53.2,41.6ZM97.4,41.6L97.4,42.9L94.8,42.9L94.8,41.6L97.4,41.6ZM72.7,41.6L71.4,41.6L71.4,42.9L72.7,42.9L72.7,41.6ZM63.6,41.6L62.3,41.6L62.3,42.9L63.6,42.9L63.6,41.6ZM32.5,41.6L32.5,42.9L29.9,42.9L29.9,41.6L32.5,41.6ZM94.8,37.7L96.1,37.7L96.1,39L97.4,39L97.4,41.6L94.8,41.6L94.8,37.7ZM59.7,40.3L59.7,41.6L57.1,41.6L57.1,40.3L59.7,40.3ZM80.5,39L81.8,39L81.8,37.7L83.1,37.7L83.1,39L84.4,39L84.4,40.3L81.8,40.3L81.8,41.6L79.2,41.6L79.2,40.3L77.9,40.3L77.9,39L79.2,39L79.2,37.7L80.5,37.7L80.5,39ZM35.1,41.6L33.8,41.6L33.8,39L35.1,39L35.1,41.6ZM41.6,37.7L42.9,37.7L42.9,39L44.2,39L44.2,41.6L41.6,41.6L41.6,37.7ZM36.4,41.6L35.1,41.6L35.1,39L36.4,39L36.4,41.6ZM93.5,37.7L93.5,39L92.2,39L92.2,40.3L93.5,40.3L93.5,41.6L90.9,41.6L90.9,37.7L93.5,37.7ZM29.9,40.3L31.2,40.3L31.2,39L32.5,39L32.5,41.6L28.6,41.6L28.6,39L29.9,39L29.9,40.3ZM50.7,41.6L48.1,41.6L48.1,39L50.7,39L50.7,41.6ZM18.2,40.3L16.9,40.3L16.9,41.6L18.2,41.6L18.2,40.3ZM53.2,41.6L51.9,41.6L51.9,39L53.2,39L53.2,41.6ZM63.6,41.6L61,41.6L61,40.3L62.3,40.3L62.3,39L63.6,39L63.6,41.6ZM67.5,41.6L64.9,41.6L64.9,40.3L63.6,40.3L63.6,39L64.9,39L64.9,37.7L67.5,37.7L67.5,41.6ZM75.3,41.6L72.7,41.6L72.7,40.3L74,40.3L74,39L75.3,39L75.3,41.6ZM7.8,40.3L6.5,40.3L6.5,41.6L7.8,41.6L7.8,40.3ZM98.7,40.3L100,40.3L100,41.6L97.4,41.6L97.4,37.7L98.7,37.7L98.7,40.3ZM57.1,40.3L55.8,40.3L55.8,41.6L57.1,41.6L57.1,40.3ZM87,40.3L89.6,40.3L89.6,41.6L85.7,41.6L85.7,39L87,39L87,40.3ZM77.9,41.6L76.6,41.6L76.6,37.7L77.9,37.7L77.9,41.6ZM40.3,37.7L40.3,39L39,39L39,40.3L40.3,40.3L40.3,41.6L37.7,41.6L37.7,37.7L40.3,37.7ZM44.2,39L45.5,39L45.5,40.3L46.8,40.3L46.8,41.6L44.2,41.6L44.2,39ZM1.3,41.6L0,41.6L0,39L1.3,39L1.3,41.6ZM57.1,37.7L57.1,39L55.8,39L55.8,40.3L53.2,40.3L53.2,39L54.5,39L54.5,37.7L57.1,37.7ZM10.4,37.7L11.7,37.7L11.7,39L13,39L13,37.7L15.6,37.7L15.6,40.3L10.4,40.3L10.4,37.7ZM72.7,40.3L71.4,40.3L71.4,37.7L72.7,37.7L72.7,40.3ZM61,39L59.7,39L59.7,40.3L61,40.3L61,39ZM41.6,39L40.3,39L40.3,40.3L41.6,40.3L41.6,39ZM71.4,39L70.1,39L70.1,40.3L71.4,40.3L71.4,39ZM22.1,37.7L22.1,39L23.4,39L23.4,37.7L26,37.7L26,39L23.4,39L23.4,40.3L18.2,40.3L18.2,39L16.9,39L16.9,37.7L22.1,37.7ZM90.9,39L89.6,39L89.6,40.3L90.9,40.3L90.9,39ZM27.3,39L26,39L26,40.3L27.3,40.3L27.3,39ZM6.5,40.3L5.2,40.3L5.2,39L2.6,39L2.6,37.7L6.5,37.7L6.5,40.3ZM9.1,39L7.8,39L7.8,40.3L9.1,40.3L9.1,39ZM70.1,37.7L68.8,37.7L68.8,39L70.1,39L70.1,37.7ZM46.8,37.7L45.5,37.7L45.5,39L46.8,39L46.8,37.7ZM88.3,37.7L87,37.7L87,39L88.3,39L88.3,37.7ZM59.7,36.4L59.7,37.7L57.1,37.7L57.1,36.4L59.7,36.4ZM57.1,36.4L57.1,37.7L54.5,37.7L54.5,36.4L57.1,36.4ZM100,36.4L100,37.7L97.4,37.7L97.4,36.4L100,36.4ZM89.6,36.4L90.9,36.4L90.9,37.7L88.3,37.7L88.3,35.1L89.6,35.1L89.6,36.4ZM31.2,36.4L31.2,35.1L32.5,35.1L32.5,36.4L35.1,36.4L35.1,37.7L27.3,37.7L27.3,36.4L31.2,36.4ZM37.7,37.7L35.1,37.7L35.1,36.4L36.4,36.4L36.4,35.1L37.7,35.1L37.7,37.7ZM51.9,35.1L51.9,36.4L50.7,36.4L50.7,37.7L49.4,37.7L49.4,36.4L48.1,36.4L48.1,35.1L51.9,35.1ZM6.5,36.4L10.4,36.4L10.4,35.1L11.7,35.1L11.7,37.7L5.2,37.7L5.2,36.4L3.9,36.4L3.9,37.7L2.6,37.7L2.6,35.1L6.5,35.1L6.5,36.4ZM85.7,36.4L84.4,36.4L84.4,37.7L85.7,37.7L85.7,36.4ZM37.7,35.1L39,35.1L39,36.4L41.6,36.4L41.6,37.7L37.7,37.7L37.7,35.1ZM67.5,35.1L67.5,36.4L66.2,36.4L66.2,37.7L63.6,37.7L63.6,36.4L64.9,36.4L64.9,35.1L67.5,35.1ZM77.9,37.7L76.6,37.7L76.6,36.4L75.3,36.4L75.3,37.7L74,37.7L74,36.4L75.3,36.4L75.3,35.1L77.9,35.1L77.9,37.7ZM13,35.1L14.3,35.1L14.3,36.4L15.6,36.4L15.6,37.7L13,37.7L13,35.1ZM61,36.4L63.6,36.4L63.6,37.7L59.7,37.7L59.7,35.1L61,35.1L61,36.4ZM44.2,35.1L45.5,35.1L45.5,36.4L48.1,36.4L48.1,37.7L44.2,37.7L44.2,35.1ZM84.4,35.1L84.4,36.4L83.1,36.4L83.1,37.7L81.8,37.7L81.8,36.4L80.5,36.4L80.5,37.7L79.2,37.7L79.2,36.4L80.5,36.4L80.5,35.1L84.4,35.1ZM26,37.7L22.1,37.7L22.1,36.4L20.8,36.4L20.8,37.7L16.9,37.7L16.9,35.1L26,35.1L26,37.7ZM1.3,37.7L0,37.7L0,35.1L1.3,35.1L1.3,37.7ZM93.5,36.4L93.5,35.1L94.8,35.1L94.8,36.4L97.4,36.4L97.4,37.7L90.9,37.7L90.9,36.4L93.5,36.4ZM42.9,36.4L41.6,36.4L41.6,37.7L42.9,37.7L42.9,36.4ZM71.4,36.4L71.4,37.7L68.8,37.7L68.8,36.4L71.4,36.4ZM54.5,35.1L53.2,35.1L53.2,36.4L54.5,36.4L54.5,35.1ZM44.2,35.1L42.9,35.1L42.9,36.4L44.2,36.4L44.2,35.1ZM72.7,35.1L71.4,35.1L71.4,36.4L72.7,36.4L72.7,35.1ZM76.6,24.7L77.9,24.7L77.9,26L76.6,26L76.6,28.6L77.9,28.6L77.9,29.9L75.3,29.9L75.3,31.2L76.6,31.2L76.6,32.5L77.9,32.5L77.9,33.8L75.3,33.8L75.3,35.1L74,35.1L74,32.5L72.7,32.5L72.7,35.1L71.4,35.1L71.4,31.2L74,31.2L74,29.9L71.4,29.9L71.4,26L72.7,26L72.7,28.6L75.3,28.6L75.3,22.1L76.6,22.1L76.6,24.7ZM18.2,33.8L16.9,33.8L16.9,35.1L18.2,35.1L18.2,33.8ZM29.9,33.8L28.6,33.8L28.6,35.1L29.9,35.1L29.9,33.8ZM11.7,23.4L13,23.4L13,27.3L15.6,27.3L15.6,29.9L16.9,29.9L16.9,28.6L19.5,28.6L19.5,31.2L15.6,31.2L15.6,35.1L14.3,35.1L14.3,32.5L13,32.5L13,33.8L11.7,33.8L11.7,35.1L10.4,35.1L10.4,32.5L6.5,32.5L6.5,35.1L1.3,35.1L1.3,33.8L2.6,33.8L2.6,32.5L3.9,32.5L3.9,31.2L13,31.2L13,29.9L11.7,29.9L11.7,28.6L10.4,28.6L10.4,29.9L3.9,29.9L3.9,28.6L2.6,28.6L2.6,31.2L1.3,31.2L1.3,27.3L3.9,27.3L3.9,28.6L5.2,28.6L5.2,26L6.5,26L6.5,28.6L10.4,28.6L10.4,27.3L11.7,27.3L11.7,26L10.4,26L10.4,22.1L11.7,22.1L11.7,23.4ZM90.9,32.5L89.6,32.5L89.6,35.1L88.3,35.1L88.3,32.5L87,32.5L87,35.1L84.4,35.1L84.4,33.8L85.7,33.8L85.7,32.5L87,32.5L87,31.2L89.6,31.2L89.6,29.9L90.9,29.9L90.9,32.5ZM63.6,28.6L62.3,28.6L62.3,29.9L63.6,29.9L63.6,32.5L61,32.5L61,35.1L59.7,35.1L59.7,27.3L62.3,27.3L62.3,24.7L63.6,24.7L63.6,28.6ZM97.4,32.5L98.7,32.5L98.7,33.8L100,33.8L100,35.1L97.4,35.1L97.4,32.5ZM83.1,35.1L80.5,35.1L80.5,32.5L83.1,32.5L83.1,35.1ZM37.7,26L39,26L39,27.3L40.3,27.3L40.3,29.9L41.6,29.9L41.6,35.1L39,35.1L39,33.8L40.3,33.8L40.3,29.9L37.7,29.9L37.7,26ZM42.9,35.1L41.6,35.1L41.6,32.5L42.9,32.5L42.9,35.1ZM63.6,33.8L62.3,33.8L62.3,35.1L63.6,35.1L63.6,33.8ZM58.4,35.1L57.1,35.1L57.1,32.5L58.4,32.5L58.4,35.1ZM92.2,33.8L90.9,33.8L90.9,35.1L92.2,35.1L92.2,33.8ZM26,33.8L24.7,33.8L24.7,35.1L26,35.1L26,33.8ZM16.9,1.3L19.5,1.3L19.5,2.6L20.8,2.6L20.8,1.3L22.1,1.3L22.1,3.9L23.4,3.9L23.4,5.2L28.6,5.2L28.6,3.9L26,3.9L26,2.6L27.3,2.6L27.3,1.3L28.6,1.3L28.6,0L29.9,0L29.9,2.6L28.6,2.6L28.6,3.9L32.5,3.9L32.5,5.2L35.1,5.2L35.1,6.5L32.5,6.5L32.5,10.4L35.1,10.4L35.1,11.7L32.5,11.7L32.5,13L33.8,13L33.8,14.3L35.1,14.3L35.1,15.6L33.8,15.6L33.8,16.9L32.5,16.9L32.5,18.2L35.1,18.2L35.1,22.1L33.8,22.1L33.8,20.8L31.2,20.8L31.2,16.9L29.9,16.9L29.9,23.4L32.5,23.4L32.5,22.1L33.8,22.1L33.8,23.4L35.1,23.4L35.1,26L33.8,26L33.8,23.4L32.5,23.4L32.5,26L31.2,26L31.2,24.7L29.9,24.7L29.9,26L31.2,26L31.2,27.3L32.5,27.3L32.5,28.6L31.2,28.6L31.2,29.9L32.5,29.9L32.5,28.6L33.8,28.6L33.8,27.3L35.1,27.3L35.1,29.9L33.8,29.9L33.8,31.2L35.1,31.2L35.1,32.5L32.5,32.5L32.5,35.1L31.2,35.1L31.2,29.9L29.9,29.9L29.9,31.2L28.6,31.2L28.6,28.6L29.9,28.6L29.9,27.3L28.6,27.3L28.6,28.6L26,28.6L26,24.7L23.4,24.7L23.4,26L24.7,26L24.7,27.3L20.8,27.3L20.8,26L19.5,26L19.5,27.3L16.9,27.3L16.9,24.7L18.2,24.7L18.2,22.1L15.6,22.1L15.6,26L14.3,26L14.3,22.1L15.6,22.1L15.6,20.8L16.9,20.8L16.9,19.5L15.6,19.5L15.6,18.2L14.3,18.2L14.3,16.9L15.6,16.9L15.6,15.6L16.9,15.6L16.9,18.2L18.2,18.2L18.2,19.5L19.5,19.5L19.5,18.2L20.8,18.2L20.8,16.9L19.5,16.9L19.5,18.2L18.2,18.2L18.2,16.9L19.5,16.9L19.5,15.6L18.2,15.6L18.2,13L16.9,13L16.9,10.4L20.8,10.4L20.8,6.5L19.5,6.5L19.5,5.2L18.2,5.2L18.2,6.5L16.9,6.5L16.9,5.2L15.6,5.2L15.6,6.5L16.9,6.5L16.9,10.4L14.3,10.4L14.3,9.1L15.6,9.1L15.6,6.5L14.3,6.5L14.3,9.1L13,9.1L13,7.8L11.7,7.8L11.7,13L13,13L13,14.3L14.3,14.3L14.3,15.6L13,15.6L13,16.9L5.2,16.9L5.2,15.6L2.6,15.6L2.6,18.2L1.3,18.2L1.3,19.5L0,19.5L0,16.9L1.3,16.9L1.3,13L2.6,13L2.6,14.3L3.9,14.3L3.9,11.7L1.3,11.7L1.3,13L0,13L0,10.4L3.9,10.4L3.9,11.7L6.5,11.7L6.5,10.4L9.1,10.4L9.1,11.7L7.8,11.7L7.8,13L6.5,13L6.5,14.3L5.2,14.3L5.2,15.6L6.5,15.6L6.5,14.3L7.8,14.3L7.8,13L10.4,13L10.4,5.2L11.7,5.2L11.7,3.9L13,3.9L13,6.5L14.3,6.5L14.3,2.6L15.6,2.6L15.6,1.3L13,1.3L13,0L16.9,0L16.9,1.3ZM20.8,33.8L20.8,32.5L22.1,32.5L22.1,33.8L23.4,33.8L23.4,35.1L19.5,35.1L19.5,33.8L20.8,33.8ZM67.5,23.4L70.1,23.4L70.1,22.1L71.4,22.1L71.4,24.7L70.1,24.7L70.1,26L71.4,26L71.4,35.1L70.1,35.1L70.1,27.3L67.5,27.3L67.5,28.6L68.8,28.6L68.8,29.9L67.5,29.9L67.5,31.2L66.2,31.2L66.2,33.8L67.5,33.8L67.5,35.1L64.9,35.1L64.9,32.5L63.6,32.5L63.6,31.2L64.9,31.2L64.9,29.9L63.6,29.9L63.6,28.6L66.2,28.6L66.2,27.3L64.9,27.3L64.9,26L63.6,26L63.6,23.4L66.2,23.4L66.2,22.1L67.5,22.1L67.5,23.4ZM97.4,35.1L96.1,35.1L96.1,33.8L94.8,33.8L94.8,35.1L93.5,35.1L93.5,32.5L90.9,32.5L90.9,31.2L97.4,31.2L97.4,35.1ZM48.1,24.7L49.4,24.7L49.4,26L53.2,26L53.2,27.3L51.9,27.3L51.9,28.6L50.7,28.6L50.7,29.9L51.9,29.9L51.9,31.2L53.2,31.2L53.2,32.5L51.9,32.5L51.9,33.8L53.2,33.8L53.2,35.1L49.4,35.1L49.4,33.8L50.6,33.8L50.6,32.5L49.4,32.5L49.4,31.2L50.6,31.2L50.6,29.9L49.4,29.9L49.4,27.3L48.1,27.3L48.1,24.7ZM9.1,33.8L7.8,33.8L7.8,35.1L9.1,35.1L9.1,33.8ZM57.1,33.8L55.8,33.8L55.8,35.1L57.1,35.1L57.1,33.8ZM48.1,35.1L45.5,35.1L45.5,33.8L46.8,33.8L46.8,32.5L45.5,32.5L45.5,33.8L44.2,33.8L44.2,32.5L45.5,32.5L45.5,31.2L48.1,31.2L48.1,35.1ZM35.1,33.8L33.8,33.8L33.8,35.1L35.1,35.1L35.1,33.8ZM37.7,35.1L36.4,35.1L36.4,32.5L35.1,32.5L35.1,29.9L36.4,29.9L36.4,28.6L37.7,28.6L37.7,35.1ZM55.8,29.9L57.1,29.9L57.1,31.2L55.8,31.2L55.8,33.8L53.2,33.8L53.2,32.5L54.5,32.5L54.5,29.9L53.2,29.9L53.2,28.6L55.8,28.6L55.8,29.9ZM28.6,31.2L28.6,32.5L27.3,32.5L27.3,33.8L26,33.8L26,32.5L24.7,32.5L24.7,31.2L28.6,31.2ZM1.3,33.8L0,33.8L0,31.2L1.3,31.2L1.3,33.8ZM3.9,32.5L3.9,33.8L5.2,33.8L5.2,32.5L3.9,32.5ZM68.8,31.2L67.5,31.2L67.5,32.5L68.8,32.5L68.8,31.2ZM44.2,31.2L42.9,31.2L42.9,32.5L44.2,32.5L44.2,31.2ZM24.7,31.2L23.4,31.2L23.4,32.5L22.1,32.5L22.1,31.2L23.4,31.2L23.4,28.6L24.7,28.6L24.7,31.2ZM80.5,7.8L79.2,7.8L79.2,9.1L80.5,9.1L80.5,7.8L81.8,7.8L81.8,9.1L83.1,9.1L83.1,13L84.4,13L84.4,15.6L83.1,15.6L83.1,16.9L81.8,16.9L81.8,15.6L83.1,15.6L83.1,14.3L79.2,14.3L79.2,15.6L80.5,15.6L80.5,18.2L83.1,18.2L83.1,16.9L84.4,16.9L84.4,19.5L83.1,19.5L83.1,20.8L84.4,20.8L84.4,22.1L83.1,22.1L83.1,23.4L84.4,23.4L84.4,24.7L83.1,24.7L83.1,23.4L81.8,23.4L81.8,24.7L83.1,24.7L83.1,27.3L81.8,27.3L81.8,28.6L83.1,28.6L83.1,29.9L84.4,29.9L84.4,32.5L83.1,32.5L83.1,31.2L81.8,31.2L81.8,29.9L79.2,29.9L79.2,32.5L77.9,32.5L77.9,28.6L79.2,28.6L79.2,27.3L80.5,27.3L80.5,24.7L77.9,24.7L77.9,22.1L79.2,22.1L79.2,23.4L80.5,23.4L80.5,19.5L79.2,19.5L79.2,15.6L77.9,15.6L77.9,5.2L80.5,5.2L80.5,7.8ZM90.9,28.6L89.6,28.6L89.6,27.3L87,27.3L87,28.6L88.3,28.6L88.3,29.9L85.7,29.9L85.7,32.5L84.4,32.5L84.4,28.6L85.7,28.6L85.7,27.3L87,27.3L87,24.7L88.3,24.7L88.3,23.4L90.9,23.4L90.9,28.6ZM45.5,31.2L44.2,31.2L44.2,28.6L45.5,28.6L45.5,31.2ZM44.2,28.6L44.2,29.9L42.9,29.9L42.9,31.2L41.6,31.2L41.6,28.6L44.2,28.6ZM59.7,31.2L58.4,31.2L58.4,29.9L57.1,29.9L57.1,28.6L59.7,28.6L59.7,31.2ZM62.3,29.9L61,29.9L61,31.2L62.3,31.2L62.3,29.9ZM100,28.6L100,29.9L98.7,29.9L98.7,31.2L97.4,31.2L97.4,28.6L100,28.6ZM97.4,26L96.1,26L96.1,27.3L97.4,27.3L97.4,29.9L96.1,29.9L96.1,28.6L94.8,28.6L94.8,29.9L90.9,29.9L90.9,28.6L92.2,28.6L92.2,27.3L93.5,27.3L93.5,26L94.8,26L94.8,24.7L96.1,24.7L96.1,22.1L97.4,22.1L97.4,26ZM13,28.6L13,29.9L14.3,29.9L14.3,28.6L13,28.6ZM20.8,27.3L19.5,27.3L19.5,28.6L20.8,28.6L20.8,27.3ZM84.4,27.3L83.1,27.3L83.1,28.6L84.4,28.6L84.4,27.3ZM46.8,20.8L48.1,20.8L48.1,22.1L46.8,22.1L46.8,23.4L45.5,23.4L45.5,26L48.1,26L48.1,27.3L46.8,27.3L46.8,28.6L45.5,28.6L45.5,27.3L44.2,27.3L44.2,23.4L45.5,23.4L45.5,22.1L44.2,22.1L44.2,20.8L45.5,20.8L45.5,19.5L46.8,19.5L46.8,20.8ZM79.2,26L77.9,26L77.9,27.3L79.2,27.3L79.2,26ZM37.7,26L37.7,27.3L35.1,27.3L35.1,26L37.7,26ZM87,24.7L85.7,24.7L85.7,27.3L84.4,27.3L84.4,23.4L85.7,23.4L85.7,22.1L87,22.1L87,24.7ZM57.1,20.8L57.1,22.1L55.8,22.1L55.8,23.4L57.1,23.4L57.1,24.7L55.8,24.7L55.8,23.4L54.5,23.4L54.5,24.7L55.8,24.7L55.8,27.3L54.5,27.3L54.5,26L53.2,26L53.2,23.4L54.5,23.4L54.5,22.1L53.2,22.1L53.2,20.8L57.1,20.8ZM59.7,27.3L57.1,27.3L57.1,23.4L58.4,23.4L58.4,22.1L57.1,22.1L57.1,20.8L58.4,20.8L58.4,19.5L59.7,19.5L59.7,27.3ZM9.1,26L7.8,26L7.8,27.3L9.1,27.3L9.1,26ZM42.9,26L41.6,26L41.6,27.3L42.9,27.3L42.9,26ZM98.7,26L97.4,26L97.4,27.3L98.7,27.3L98.7,26ZM7.8,20.8L10.4,20.8L10.4,22.1L7.8,22.1L7.8,23.4L9.1,23.4L9.1,24.7L7.8,24.7L7.8,26L6.5,26L6.5,24.7L5.2,24.7L5.2,26L2.6,26L2.6,24.7L3.9,24.7L3.9,23.4L2.6,23.4L2.6,24.7L1.3,24.7L1.3,27.3L0,27.3L0,20.8L2.6,20.8L2.6,22.1L1.3,22.1L1.3,23.4L2.6,23.4L2.6,22.1L3.9,22.1L3.9,20.8L5.2,20.8L5.2,19.5L7.8,19.5L7.8,20.8ZM67.5,23.4L66.2,23.4L66.2,26L68.8,26L68.8,24.7L67.5,24.7L67.5,23.4ZM44.2,24.7L42.9,24.7L42.9,26L44.2,26L44.2,24.7ZM100,26L98.7,26L98.7,24.7L97.4,24.7L97.4,23.4L100,23.4L100,26ZM27.3,20.8L27.3,26L28.6,26L28.6,20.8L27.3,20.8ZM41.6,24.7L40.3,24.7L40.3,26L41.6,26L41.6,24.7ZM61,23.4L62.3,23.4L62.3,24.7L59.7,24.7L59.7,20.8L61,20.8L61,23.4ZM40.3,23.4L40.3,24.7L37.7,24.7L37.7,23.4L40.3,23.4ZM97.4,20.8L96.1,20.8L96.1,22.1L94.8,22.1L94.8,24.7L90.9,24.7L90.9,22.1L93.5,22.1L93.5,20.8L94.8,20.8L94.8,19.5L96.1,19.5L96.1,18.2L94.8,18.2L94.8,19.5L93.5,19.5L93.5,18.2L94.8,18.2L94.8,16.9L96.1,16.9L96.1,15.6L97.4,15.6L97.4,20.8ZM49.4,20.8L49.4,19.5L50.7,19.5L50.7,20.8L53.2,20.8L53.2,22.1L51.9,22.1L51.9,23.4L50.7,23.4L50.7,24.7L49.4,24.7L49.4,23.4L48.1,23.4L48.1,22.1L49.4,22.1L49.4,23.4L50.6,23.4L50.6,20.8L49.4,20.8ZM74,24.7L71.4,24.7L71.4,22.1L74,22.1L74,24.7ZM23.4,15.6L23.4,16.9L22.1,16.9L22.1,20.8L20.8,20.8L20.8,19.5L19.5,19.5L19.5,20.8L20.8,20.8L20.8,23.4L19.5,23.4L19.5,24.7L22.1,24.7L22.1,23.4L26,23.4L26,22.1L24.7,22.1L24.7,20.8L26,20.8L26,18.2L24.7,18.2L24.7,20.8L23.4,20.8L23.4,22.1L22.1,22.1L22.1,20.8L23.4,20.8L23.4,18.2L24.7,18.2L24.7,16.9L26,16.9L26,15.6L23.4,15.6ZM42.9,22.1L41.6,22.1L41.6,23.4L42.9,23.4L42.9,22.1ZM5.2,22.1L5.2,23.4L6.5,23.4L6.5,22.1L5.2,22.1ZM66.2,19.5L64.9,19.5L64.9,20.8L66.2,20.8L66.2,22.1L63.6,22.1L63.6,18.2L64.9,18.2L64.9,16.9L66.2,16.9L66.2,19.5ZM77.9,20.8L76.6,20.8L76.6,22.1L77.9,22.1L77.9,20.8ZM39,20.8L37.7,20.8L37.7,22.1L39,22.1L39,20.8ZM14.3,20.8L13,20.8L13,22.1L14.3,22.1L14.3,20.8ZM88.3,15.6L89.6,15.6L89.6,14.3L90.9,14.3L90.9,15.6L89.6,15.6L89.6,19.5L88.3,19.5L88.3,20.8L90.9,20.8L90.9,22.1L87,22.1L87,19.5L85.7,19.5L85.7,22.1L84.4,22.1L84.4,19.5L85.7,19.5L85.7,16.9L87,16.9L87,14.3L88.3,14.3L88.3,15.6ZM63.6,22.1L62.3,22.1L62.3,19.5L63.6,19.5L63.6,22.1ZM100,19.5L100,20.8L98.7,20.8L98.7,22.1L97.4,22.1L97.4,19.5L100,19.5ZM70.1,22.1L67.5,22.1L67.5,20.8L68.8,20.8L68.8,19.5L70.1,19.5L70.1,22.1ZM77.9,19.5L76.6,19.5L76.6,20.8L75.3,20.8L75.3,15.6L77.9,15.6L77.9,19.5ZM10.4,18.2L11.7,18.2L11.7,19.5L13,19.5L13,20.8L10.4,20.8L10.4,18.2ZM92.2,19.5L90.9,19.5L90.9,20.8L92.2,20.8L92.2,19.5ZM36.4,20.8L35.1,20.8L35.1,18.2L36.4,18.2L36.4,20.8ZM40.3,20.8L39,20.8L39,18.2L40.3,18.2L40.3,20.8ZM28.6,15.6L28.6,16.9L27.3,16.9L27.3,19.5L28.6,19.5L28.6,16.9L29.9,16.9L29.9,15.6L28.6,15.6ZM71.4,18.2L68.8,18.2L68.8,19.5L67.5,19.5L67.5,16.9L68.8,16.9L68.8,13L71.4,13L71.4,18.2ZM48.1,18.2L46.8,18.2L46.8,19.5L48.1,19.5L48.1,18.2ZM55.8,10.4L54.5,10.4L54.5,11.7L55.8,11.7L55.8,10.4L57.1,10.4L57.1,11.7L55.8,11.7L55.8,13L57.1,13L57.1,14.3L55.8,14.3L55.8,15.6L57.1,15.6L57.1,18.2L55.8,18.2L55.8,19.5L53.2,19.5L53.2,18.2L54.5,18.2L54.5,14.3L53.2,14.3L53.2,9.1L54.5,9.1L54.5,7.8L55.8,7.8L55.8,10.4ZM3.9,18.2L2.6,18.2L2.6,19.5L3.9,19.5L3.9,18.2ZM62.3,18.2L62.3,19.5L59.7,19.5L59.7,18.2L62.3,18.2ZM9.1,18.2L7.8,18.2L7.8,19.5L9.1,19.5L9.1,18.2ZM37.7,13L36.4,13L36.4,14.3L37.7,14.3L37.7,18.2L36.4,18.2L36.4,15.6L35.1,15.6L35.1,10.4L36.4,10.4L36.4,6.5L35.1,6.5L35.1,5.2L37.7,5.2L37.7,13ZM40.3,15.6L41.6,15.6L41.6,18.2L40.3,18.2L40.3,16.9L39,16.9L39,18.2L37.7,18.2L37.7,16.9L39,16.9L39,13L40.3,13L40.3,15.6ZM74,16.9L72.7,16.9L72.7,18.2L74,18.2L74,16.9ZM48.1,16.9L46.8,16.9L46.8,18.2L44.2,18.2L44.2,15.6L46.8,15.6L46.8,14.3L48.1,14.3L48.1,16.9ZM51.9,15.6L53.2,15.6L53.2,16.9L51.9,16.9L51.9,18.2L50.6,18.2L50.6,16.9L48.1,16.9L48.1,15.6L49.4,15.6L49.4,14.3L51.9,14.3L51.9,15.6ZM100,18.2L98.7,18.2L98.7,15.6L100,15.6L100,18.2ZM93.5,16.9L92.2,16.9L92.2,18.2L93.5,18.2L93.5,16.9ZM64.9,16.9L63.6,16.9L63.6,14.3L64.9,14.3L64.9,16.9ZM92.2,15.6L90.9,15.6L90.9,16.9L92.2,16.9L92.2,15.6ZM72.7,15.6L71.4,15.6L71.4,16.9L72.7,16.9L72.7,15.6ZM44.2,16.9L41.6,16.9L41.6,15.6L42.9,15.6L42.9,14.3L44.2,14.3L44.2,16.9ZM59.7,13L61,13L61,14.3L62.3,14.3L62.3,15.6L63.6,15.6L63.6,16.9L62.3,16.9L62.3,15.6L61,15.6L61,16.9L59.7,16.9L59.7,13ZM94.8,15.6L93.5,15.6L93.5,16.9L94.8,16.9L94.8,15.6ZM58.4,14.3L59.7,14.3L59.7,15.6L58.4,15.6L58.4,16.9L57.1,16.9L57.1,15.6L58.4,15.6L58.4,14.3ZM67.5,15.6L66.2,15.6L66.2,16.9L67.5,16.9L67.5,15.6ZM85.7,15.6L84.4,15.6L84.4,16.9L85.7,16.9L85.7,15.6ZM7.8,14.3L7.8,15.6L9.1,15.6L9.1,14.3L7.8,14.3ZM29.9,14.3L29.9,15.6L31.2,15.6L31.2,14.3L29.9,14.3ZM27.3,11.7L26,11.7L26,13L24.7,13L24.7,14.3L26,14.3L26,15.6L27.3,15.6L27.3,14.3L26,14.3L26,13L27.3,13L27.3,11.7ZM19.5,15.6L23.4,15.6L23.4,10.4L22.1,10.4L22.1,11.7L19.5,11.7L19.5,15.6ZM10.4,14.3L10.4,15.6L11.7,15.6L11.7,14.3L10.4,14.3ZM88.3,11.7L89.6,11.7L89.6,10.4L90.9,10.4L90.9,13L89.6,13L89.6,14.3L88.3,14.3L88.3,13L85.7,13L85.7,14.3L84.4,14.3L84.4,13L85.7,13L85.7,11.7L87,11.7L87,10.4L88.3,10.4L88.3,11.7ZM22.1,13L20.8,13L20.8,14.3L22.1,14.3L22.1,13ZM66.2,13L64.9,13L64.9,14.3L66.2,14.3L66.2,13ZM59.7,11.7L58.4,11.7L58.4,14.3L57.1,14.3L57.1,10.4L58.4,10.4L58.4,9.1L59.7,9.1L59.7,11.7ZM14.3,11.7L15.6,11.7L15.6,13L16.9,13L16.9,14.3L14.3,14.3L14.3,11.7L13,11.7L13,10.4L14.3,10.4L14.3,11.7ZM49.4,6.5L50.6,6.5L50.6,5.2L53.2,5.2L53.2,6.5L51.9,6.5L51.9,7.8L50.7,7.8L50.7,10.4L53.2,10.4L53.2,11.7L51.9,11.7L51.9,13L49.4,13L49.4,14.3L48.1,14.3L48.1,11.7L49.4,11.7L49.4,7.8L48.1,7.8L48.1,2.6L49.4,2.6L49.4,6.5ZM76.6,10.4L77.9,10.4L77.9,14.3L76.6,14.3L76.6,11.7L72.7,11.7L72.7,13L75.3,13L75.3,14.3L71.4,14.3L71.4,10.4L74,10.4L74,9.1L75.3,9.1L75.3,7.8L76.6,7.8L76.6,10.4ZM94.8,11.7L96.1,11.7L96.1,14.3L94.8,14.3L94.8,11.7L93.5,11.7L93.5,14.3L90.9,14.3L90.9,13L92.2,13L92.2,11.7L90.9,11.7L90.9,10.4L94.8,10.4L94.8,11.7ZM100,13L98.7,13L98.7,14.3L100,14.3L100,13ZM61,0L62.3,0L62.3,1.3L63.6,1.3L63.6,6.5L61,6.5L61,10.4L63.6,10.4L63.6,11.7L62.3,11.7L62.3,13L61,13L61,11.7L59.7,11.7L59.7,5.2L61,5.2L61,3.9L59.7,3.9L59.7,2.6L61,2.6L61,0ZM80.5,11.7L79.2,11.7L79.2,13L80.5,13L80.5,11.7ZM64.9,3.9L66.2,3.9L66.2,5.2L67.5,5.2L67.5,6.5L66.2,6.5L66.2,10.4L67.5,10.4L67.5,11.7L68.8,11.7L68.8,13L67.5,13L67.5,11.7L63.6,11.7L63.6,10.4L64.9,10.4L64.9,6.5L63.6,6.5L63.6,5.2L64.9,5.2L64.9,3.9ZM41.6,13L40.3,13L40.3,11.7L39,11.7L39,10.4L41.6,10.4L41.6,13ZM100,10.4L100,11.7L98.7,11.7L98.7,13L97.4,13L97.4,10.4L100,10.4ZM48.1,11.7L46.8,11.7L46.8,13L48.1,13L48.1,11.7ZM44.2,10.4L44.2,11.7L41.6,11.7L41.6,10.4L44.2,10.4ZM45.5,11.7L44.2,11.7L44.2,7.8L45.5,7.8L45.5,11.7ZM26,6.5L26,7.8L24.7,7.8L24.7,6.5L23.4,6.5L23.4,7.8L24.7,7.8L24.7,11.7L26,11.7L26,7.8L27.3,7.8L27.3,6.5L26,6.5ZM80.5,10.4L80.5,11.7L81.8,11.7L81.8,10.4L80.5,10.4ZM28.6,7.8L27.3,7.8L27.3,9.1L28.6,9.1L28.6,10.4L27.3,10.4L27.3,11.7L29.9,11.7L29.9,9.1L28.6,9.1L28.6,7.8ZM89.6,10.4L88.3,10.4L88.3,7.8L89.6,7.8L89.6,10.4ZM89.6,6.5L87,6.5L87,10.4L85.7,10.4L85.7,6.5L84.4,6.5L84.4,2.6L85.7,2.6L85.7,5.2L88.3,5.2L88.3,1.3L89.6,1.3L89.6,6.5ZM19.5,7.8L18.2,7.8L18.2,9.1L19.5,9.1L19.5,7.8ZM42.9,7.8L41.6,7.8L41.6,9.1L42.9,9.1L42.9,7.8ZM37.7,0L39,0L39,1.3L40.3,1.3L40.3,3.9L41.6,3.9L41.6,5.2L40.3,5.2L40.3,3.9L39,3.9L39,5.2L40.3,5.2L40.3,9.1L39,9.1L39,6.5L37.7,6.5L37.7,3.9L39,3.9L39,2.6L37.7,2.6L37.7,0ZM29.9,5.2L29.9,9.1L31.2,9.1L31.2,5.2L29.9,5.2ZM48.1,9.1L46.8,9.1L46.8,6.5L48.1,6.5L48.1,9.1ZM22.1,7.8L22.1,9.1L23.4,9.1L23.4,7.8L22.1,7.8ZM63.6,7.8L62.3,7.8L62.3,9.1L63.6,9.1L63.6,7.8ZM58.4,9.1L57.1,9.1L57.1,6.5L58.4,6.5L58.4,9.1ZM9.1,0L0,0L0,9.1L9.1,9.1L9.1,0ZM100,0L90.9,0L90.9,9.1L100,9.1L100,0ZM53.2,7.8L51.9,7.8L51.9,9.1L53.2,9.1L53.2,7.8ZM74,7.8L72.7,7.8L72.7,9.1L74,9.1L74,7.8ZM71.4,7.8L70.1,7.8L70.1,9.1L71.4,9.1L71.4,7.8ZM68.8,7.8L67.5,7.8L67.5,9.1L68.8,9.1L68.8,7.8ZM84.4,7.8L83.1,7.8L83.1,9.1L84.4,9.1L84.4,7.8ZM35.1,7.8L33.8,7.8L33.8,9.1L35.1,9.1L35.1,7.8ZM55.8,5.2L55.8,6.5L54.5,6.5L54.5,7.8L53.2,7.8L53.2,5.2L55.8,5.2ZM98.7,1.3L98.7,7.8L92.2,7.8L92.2,1.3L98.7,1.3ZM70.1,2.6L71.4,2.6L71.4,3.9L70.1,3.9L70.1,7.8L68.8,7.8L68.8,3.9L67.5,3.9L67.5,1.3L68.8,1.3L68.8,0L70.1,0L70.1,2.6ZM7.8,1.3L7.8,7.8L1.3,7.8L1.3,1.3L7.8,1.3ZM72.7,7.8L71.4,7.8L71.4,5.2L72.7,5.2L72.7,7.8ZM97.4,2.6L93.5,2.6L93.5,6.5L97.4,6.5L97.4,2.6ZM44.2,3.9L45.5,3.9L45.5,5.2L46.8,5.2L46.8,6.5L44.2,6.5L44.2,3.9ZM84.4,5.2L83.1,5.2L83.1,6.5L84.4,6.5L84.4,5.2ZM6.5,2.6L2.6,2.6L2.6,6.5L6.5,6.5L6.5,2.6ZM59.7,6.5L58.4,6.5L58.4,5.2L57.1,5.2L57.1,3.9L59.7,3.9L59.7,6.5ZM76.6,3.9L77.9,3.9L77.9,5.2L76.6,5.2L76.6,6.5L74,6.5L74,5.2L75.3,5.2L75.3,3.9L74,3.9L74,5.2L72.7,5.2L72.7,3.9L71.4,3.9L71.4,2.6L76.6,2.6L76.6,3.9ZM81.8,2.6L80.5,2.6L80.5,3.9L81.8,3.9L81.8,2.6L84.4,2.6L84.4,3.9L81.8,3.9L81.8,5.2L80.5,5.2L80.5,3.9L79.2,3.9L79.2,1.3L80.5,1.3L80.5,0L81.8,0L81.8,2.6ZM44.2,5.2L42.9,5.2L42.9,3.9L41.6,3.9L41.6,2.6L44.2,2.6L44.2,5.2ZM48.1,3.9L46.8,3.9L46.8,5.2L48.1,5.2L48.1,3.9ZM50.6,0L51.9,0L51.9,1.3L53.2,1.3L53.2,3.9L51.9,3.9L51.9,2.6L50.6,2.6L50.6,0ZM57.1,3.9L54.5,3.9L54.5,2.6L55.8,2.6L55.8,1.3L57.1,1.3L57.1,3.9ZM35.1,3.9L33.8,3.9L33.8,2.6L32.5,2.6L32.5,0L35.1,0L35.1,3.9ZM61,2.6L61,3.9L62.3,3.9L62.3,2.6L61,2.6ZM15.6,2.6L15.6,3.9L18.2,3.9L18.2,2.6L15.6,2.6ZM26,1.3L24.7,1.3L24.7,2.6L26,2.6L26,1.3ZM11.7,2.6L10.4,2.6L10.4,0L11.7,0L11.7,2.6ZM77.9,2.6L76.6,2.6L76.6,0L77.9,0L77.9,2.6ZM48.1,2.6L44.2,2.6L44.2,0L48.1,0L48.1,2.6ZM87,1.3L85.7,1.3L85.7,2.6L87,2.6L87,1.3ZM67.5,0L67.5,1.3L66.2,1.3L66.2,2.6L64.9,2.6L64.9,1.3L63.6,1.3L63.6,0L67.5,0ZM59.7,0L59.7,1.3L58.4,1.3L58.4,2.6L57.1,2.6L57.1,0L59.7,0ZM37.7,0L37.7,1.3L36.4,1.3L36.4,2.6L35.1,2.6L35.1,0L37.7,0ZM20.8,0L19.5,0L19.5,1.3L20.8,1.3L20.8,0ZM24.7,0L24.7,1.3L22.1,1.3L22.1,0L24.7,0ZM55.8,0L55.8,1.3L53.2,1.3L53.2,0L55.8,0ZM44.2,0L42.9,0L42.9,1.3L44.2,1.3L44.2,0ZM84.4,0L83.1,0L83.1,1.3L84.4,1.3L84.4,0ZM75.3,0L75.3,1.3L72.7,1.3L72.7,0L75.3,0Z"/>
    </g>
</svg>
